<svg width="86" height="38" viewBox="0 0 86 38" fill="none" xmlns="http://www.w3.org/2000/svg">
<g id="Asset 7" clip-path="url(#clip0_238_1739)">
<g id="Icon">
<g id="Group">
<path id="Vector" d="M84.8717 0H26.8604C26.3176 0 25.7954 0.215047 25.4113 0.599059L0.599059 25.4113C0.215047 25.7954 0 26.3176 0 26.8604V36.476C0 37.0392 0.460814 37.5 1.02403 37.5H59.0303C59.573 37.5 60.0953 37.285 60.4793 36.901L85.2967 12.0836C85.6807 11.6996 85.8958 11.1773 85.8958 10.6346V1.02403C85.8958 0.460814 85.435 0 84.8717 0Z" fill="#4C4240"/>
<path id="Vector_2" d="M50.0134 2.43213H50.5561H54.6011H55.1438H59.1887H59.7315H61.3545H63.6842L39.8192 26.2972H37.3615H35.8715H35.3237H31.2787H30.736H26.6911H26.1483H22.2109L46.076 2.43213H50.0134Z" fill="#FA7D1E"/>
<path id="Vector_3" d="M27.0189 2.43213H30.9614H31.5041H35.5542H36.0969H40.1367H40.6846H42.9477H44.6271L20.762 26.2972H18.504H16.8195H16.2768H12.2267H11.684H7.64419H7.09633H3.15381L27.0189 2.43213Z" fill="#FA7D1E"/>
<path id="Vector_4" d="M20.3372 34.94H2.56006V27.4492H20.3372V30.3011H23.0561V32.0881H20.3372V34.94Z" fill="#FFFFDA"/>
<path id="Vector_5" d="M39.3893 34.94H21.6172V33.3681H24.336V29.0211H21.6172V27.4492H39.3893V30.3011H42.1132V32.0881H39.3893V34.94Z" fill="#FFFFDA"/>
<path id="Vector_6" d="M58.4466 34.94H40.6694V33.3681H43.3934V29.0211H40.6694V27.4492H58.4466V34.94Z" fill="#FFFFDA"/>
<path id="Vector_7" d="M58.8717 26.2972H56.0095H54.9291H54.3864H50.3364H49.7936H45.7538H45.2111H41.2686L65.1285 2.43213H69.071H69.6189H73.6689H74.2117H78.2515H78.7942H80.2022H82.7367L58.8717 26.2972Z" fill="#FA7D1E"/>
<path id="Vector_8" d="M83.4637 10.4808C79.7567 14.1878 63.3056 30.6388 59.5986 34.3458V27.0189C63.3056 23.3119 79.7567 6.8608 83.4637 3.15381V10.4808Z" fill="#E5DCB5"/>
<g id="Group_2">
<path id="Vector_9" d="M12.2732 21.126L7.09668 26.2973H7.64454L12.5445 21.3973L12.2732 21.126Z" fill="#100801"/>
<path id="Vector_10" d="M22.6059 15.376L11.6846 26.2973H12.2273L22.8772 15.6473L22.6059 15.376Z" fill="#100801"/>
<path id="Vector_11" d="M20.8138 21.7607L16.2773 26.2972H16.8201L21.0852 22.0321L20.8138 21.7607Z" fill="#100801"/>
<path id="Vector_12" d="M34.9811 8.13599L40.6849 2.43213H40.1371L34.7046 7.86462L34.9811 8.13599Z" fill="#100801"/>
<path id="Vector_13" d="M56.6395 5.5247L59.7321 2.43213H59.1894L56.3682 5.25334L56.6395 5.5247Z" fill="#100801"/>
<path id="Vector_14" d="M40.3932 17.1884L55.1444 2.43213H54.6016L40.1167 16.9171L40.3932 17.1884Z" fill="#100801"/>
<path id="Vector_15" d="M72.2968 4.34707L74.2117 2.43213H73.669L72.0254 4.0757L72.2968 4.34707Z" fill="#100801"/>
<path id="Vector_16" d="M58.9232 21.7607L54.3867 26.2972H54.9295L59.1997 22.0321L58.9232 21.7607Z" fill="#100801"/>
<path id="Vector_17" d="M31.7094 20.7368L26.1489 26.2973H26.6917L31.9808 21.0082L31.7094 20.7368Z" fill="#100801"/>
<path id="Vector_18" d="M38.2169 18.8218L30.7363 26.2972H31.2791L38.4882 19.0931L38.2169 18.8218Z" fill="#100801"/>
<path id="Vector_19" d="M45.6772 15.9443L35.3242 26.2973H35.8721L45.9485 16.2157L45.6772 15.9443Z" fill="#100801"/>
<path id="Vector_20" d="M50.3828 21.126L45.2114 26.2973H45.7542L50.6542 21.3973L50.3828 21.126Z" fill="#100801"/>
<path id="Vector_21" d="M60.7204 15.376L49.7939 26.2973H50.3367L60.9917 15.6473L60.7204 15.376Z" fill="#100801"/>
<path id="Vector_22" d="M64.8114 7.23996L69.6192 2.43213H69.0714L64.54 6.96859L64.8114 7.23996Z" fill="#100801"/>
<path id="Vector_23" d="M73.0907 8.13599L78.7946 2.43213H78.2518L72.8193 7.86462L73.0907 8.13599Z" fill="#100801"/>
<path id="Vector_24" d="M47.2133 5.77559L50.5567 2.43213H50.014L46.9419 5.50422L47.2133 5.77559Z" fill="#100801"/>
<path id="Vector_25" d="M26.7015 7.23996L31.5043 2.43213H30.9615L26.4302 6.96859L26.7015 7.23996Z" fill="#100801"/>
<path id="Vector_26" d="M34.1874 4.34707L36.0972 2.43213H35.5545L33.916 4.0757L34.1874 4.34707Z" fill="#100801"/>
<path id="Vector_27" d="M23.8748 14.1106L23.2412 14.7441L23.5127 15.0157L24.1463 14.3821L23.8748 14.1106Z" fill="#100801"/>
<path id="Vector_28" d="M33.5474 4.98182L33.276 4.71045L32.6411 5.34023L32.9125 5.6116L33.5474 4.98182Z" fill="#100801"/>
<path id="Vector_29" d="M32.0039 5.97802L24.5059 13.4761L24.7774 13.7476L32.2754 6.24956L32.0039 5.97802Z" fill="#100801"/>
<path id="Vector_30" d="M24.5268 8.87751L14.1758 19.2285L14.4473 19.5001L24.7983 9.14905L24.5268 8.87751Z" fill="#100801"/>
<path id="Vector_31" d="M25.7972 7.60323L25.1636 8.23682L25.4351 8.50835L26.0687 7.87477L25.7972 7.60323Z" fill="#100801"/>
<path id="Vector_32" d="M13.5472 19.8626L12.9077 20.4902L13.1767 20.7643L13.8162 20.1367L13.5472 19.8626Z" fill="#100801"/>
<path id="Vector_33" d="M32.8045 9.77608L22.7178 19.8628L22.9893 20.1343L33.076 10.0476L32.8045 9.77608Z" fill="#100801"/>
<path id="Vector_34" d="M34.0667 8.50313L33.4331 9.13672L33.7046 9.40826L34.3382 8.77467L34.0667 8.50313Z" fill="#100801"/>
<path id="Vector_35" d="M22.0804 20.4929L21.4468 21.1265L21.7183 21.398L22.3519 20.7644L22.0804 20.4929Z" fill="#100801"/>
<path id="Vector_36" d="M61.6263 15.0176L62.2561 14.3827L61.9848 14.1113L61.355 14.7462L61.6263 15.0176Z" fill="#100801"/>
<path id="Vector_37" d="M71.3745 4.70201L70.7505 5.33789L71.0246 5.60686L71.6486 4.97098L71.3745 4.70201Z" fill="#100801"/>
<path id="Vector_38" d="M70.1252 5.97831L62.6235 13.48L62.8951 13.7515L70.3967 6.24984L70.1252 5.97831Z" fill="#100801"/>
<path id="Vector_39" d="M62.6437 8.87047L52.2891 19.2251L52.5606 19.4966L62.9152 9.14201L62.6437 8.87047Z" fill="#100801"/>
<path id="Vector_40" d="M63.9065 7.60323L63.2729 8.23682L63.5445 8.50835L64.1781 7.87477L63.9065 7.60323Z" fill="#100801"/>
<path id="Vector_41" d="M51.6487 19.8566L51.0151 20.4902L51.2867 20.7618L51.9203 20.1282L51.6487 19.8566Z" fill="#100801"/>
<path id="Vector_42" d="M70.9139 9.77609L60.8271 19.8628L61.0987 20.1343L71.1854 10.0476L70.9139 9.77609Z" fill="#100801"/>
<path id="Vector_43" d="M71.5493 9.13978L71.8207 9.41115L72.4505 8.77625L72.1791 8.50488L71.5493 9.13978Z" fill="#100801"/>
<path id="Vector_44" d="M60.1897 20.4929L59.5562 21.1265L59.8277 21.398L60.4613 20.7644L60.1897 20.4929Z" fill="#100801"/>
<path id="Vector_45" d="M38.8521 18.1867L39.1234 18.458L39.7532 17.8231L39.4818 17.5518L38.8521 18.1867Z" fill="#100801"/>
<path id="Vector_46" d="M45.0408 7.40553L33.6108 18.8354L33.8824 19.107L45.3123 7.67707L45.0408 7.40553Z" fill="#100801"/>
<path id="Vector_47" d="M32.9764 19.4719L32.3428 20.1055L32.6143 20.377L33.2479 19.7434L32.9764 19.4719Z" fill="#100801"/>
<path id="Vector_48" d="M46.3089 6.14083L45.6753 6.77441L45.9468 7.04595L46.5804 6.41236L46.3089 6.14083Z" fill="#100801"/>
<path id="Vector_49" d="M54.4711 7.16215L47.585 14.0483L47.8565 14.3199L54.7427 7.43369L54.4711 7.16215Z" fill="#100801"/>
<path id="Vector_50" d="M46.9446 14.6799L46.311 15.3135L46.5826 15.585L47.2162 14.9514L46.9446 14.6799Z" fill="#100801"/>
<path id="Vector_51" d="M55.7361 5.8879L55.1025 6.52148L55.3741 6.79302L56.0077 6.15943L55.7361 5.8879Z" fill="#100801"/>
</g>
</g>
</g>
</g>
<defs>
<clipPath id="clip0_238_1739">
<rect width="85.8958" height="37.5" fill="white"/>
</clipPath>
</defs>
</svg>
