<svg width="57" height="54" viewBox="0 0 57 54" fill="none" xmlns="http://www.w3.org/2000/svg">
<g clip-path="url(#clip0_269_4088)">
<path d="M42.0786 33.8373L38.1376 40.6642L30.8354 53.3169C30.606 53.7173 30.0931 53.8507 29.6969 53.6213L0.625549 36.8358C0.237709 36.6106 0 36.1977 0 35.7515V9.54102L42.0786 33.8373Z" fill="#4B4B4C"/>
<path d="M39.23 34.6008L38.0498 36.6443L37.8413 37.0029L36.6486 39.0714L36.4401 39.4342L35.2474 41.4985L35.0389 41.8613L33.8462 43.9215L33.6376 44.2843L32.4491 46.3486L32.2364 46.7114L31.0437 48.7799L30.8352 49.1386L29.655 51.1862L2.08496 35.2722V13.1528L39.23 34.6008Z" fill="#FA7D1E"/>
<path d="M7.50393 31.9523L7.29541 32.3135L23.4212 41.6237L23.6298 41.2626L7.50393 31.9523Z" fill="#100801"/>
<path d="M6.13283 31.1579L5.92432 31.519L6.61052 31.9152L6.81904 31.5541L6.13283 31.1579Z" fill="#100801"/>
<path d="M24.3179 41.6593L24.1094 42.0205L24.7956 42.4167L25.0041 42.0555L24.3179 41.6593Z" fill="#100801"/>
<path d="M32.4498 46.349L32.2371 46.7118L25.4854 42.8125L25.6939 42.4497L32.4498 46.349Z" fill="#100801"/>
<path d="M5.44624 30.7642L5.23773 31.127L2.08496 29.3046V28.8208L5.44624 30.7642Z" fill="#100801"/>
<path d="M11.585 37.545L11.3764 37.9037L2.08496 32.5406V32.061L11.585 37.545Z" fill="#100801"/>
<path d="M13.6421 38.7321L13.4336 39.0933L27.1577 47.0169L27.3662 46.6557L13.6421 38.7321Z" fill="#100801"/>
<path d="M31.0444 48.7799L30.8359 49.1385L29.2178 48.2043L29.4263 47.8457L31.0444 48.7799Z" fill="#100801"/>
<path d="M12.2686 37.9333L12.0601 38.2944L12.7463 38.6906L12.9548 38.3295L12.2686 37.9333Z" fill="#100801"/>
<path d="M28.0497 47.0528L27.8413 47.4141L28.5277 47.81L28.736 47.4488L28.0497 47.0528Z" fill="#100801"/>
<path d="M6.53371 24.9245L6.3252 25.2856L23.4803 35.1902L23.6888 34.829L6.53371 24.9245Z" fill="#100801"/>
<path d="M5.16262 24.1257L4.9541 24.4868L5.64031 24.883L5.84882 24.5218L5.16262 24.1257Z" fill="#100801"/>
<path d="M24.376 35.2199L24.1675 35.5811L24.8537 35.9772L25.0622 35.6161L24.376 35.2199Z" fill="#100801"/>
<path d="M35.2476 41.4981L35.0391 41.861L25.5391 36.3728L25.7476 36.0142L35.2476 41.4981Z" fill="#100801"/>
<path d="M4.47456 23.7329L4.26604 24.0916L2.08496 22.8363V22.3525L4.47456 23.7329Z" fill="#100801"/>
<path d="M13.1089 22.2463L12.9004 22.6074L29.7124 32.3139L29.9209 31.9527L13.1089 22.2463Z" fill="#100801"/>
<path d="M11.7407 21.4518L11.5322 21.813L12.2184 22.2092L12.4269 21.848L11.7407 21.4518Z" fill="#100801"/>
<path d="M30.605 32.3454L30.3965 32.7065L31.0827 33.1027L31.2912 32.7416L30.605 32.3454Z" fill="#100801"/>
<path d="M38.0503 36.6442L37.8417 37.0028L31.7739 33.4998L31.9824 33.1411L38.0503 36.6442Z" fill="#100801"/>
<path d="M11.0512 21.0601L10.8426 21.4188L2.08496 16.3644V15.8848L11.0512 21.0601Z" fill="#100801"/>
<path d="M14.3874 32.6909L14.1789 33.0496L2.08496 26.0726V25.5889L14.3874 32.6909Z" fill="#100801"/>
<path d="M16.4414 33.8771L16.2329 34.2383L28.9277 41.5676L29.1362 41.2065L16.4414 33.8771Z" fill="#100801"/>
<path d="M33.8464 43.9214L33.6379 44.2842L30.9897 42.7578L31.1983 42.395L33.8464 43.9214Z" fill="#100801"/>
<path d="M15.0747 33.0793L14.8662 33.4404L15.5524 33.8366L15.7609 33.4755L15.0747 33.0793Z" fill="#100801"/>
<path d="M29.8242 41.6012L29.6157 41.9624L30.3019 42.3586L30.5104 41.9974L29.8242 41.6012Z" fill="#100801"/>
<path d="M17.1857 27.8364L16.9772 28.1992L2.08496 19.5958V19.1162L17.1857 27.8364Z" fill="#100801"/>
<path d="M19.2466 29.0236L19.0381 29.3848L32.7622 37.3084L32.9707 36.9472L19.2466 29.0236Z" fill="#100801"/>
<path d="M36.6489 39.0714L36.4404 39.4342L34.8223 38.5L35.0308 38.1372L36.6489 39.0714Z" fill="#100801"/>
<path d="M17.8745 28.2301L17.666 28.5913L18.3522 28.9875L18.5607 28.6263L17.8745 28.2301Z" fill="#100801"/>
<path d="M33.6577 37.341L33.4492 37.7021L34.1354 38.0983L34.3439 37.7372L33.6577 37.341Z" fill="#100801"/>
<path d="M41.6615 34.5588L38.1376 40.6642L0 30.4469V9.54102L41.3571 33.4203C41.7575 33.6497 41.8909 34.1626 41.6615 34.5588Z" fill="#FA7D1E"/>
<path d="M49.4309 18.2576C49.8771 18.3786 50.1398 18.8331 50.0189 19.2794L48.601 24.5715L44.4098 40.1894C44.2888 40.6356 43.8343 40.8983 43.3881 40.7774L0.925812 29.4049C0.3795 29.259 0 28.7627 0 28.1955V5.0127L49.4309 18.2576Z" fill="#4B4B4C"/>
<path d="M47.6749 19.9466L47.0661 22.2236L46.9577 22.6281L46.3404 24.9343L46.232 25.3347L45.6148 27.6367L45.5064 28.0412L44.8892 30.3432L44.7807 30.7477L44.1635 33.0497L44.0551 33.4543L43.4379 35.7605L43.3336 36.1608L42.7206 38.442L2.08496 27.5533V7.72754L47.6749 19.9466Z" fill="#FA7D1E"/>
<path d="M20.9557 26.8313L20.8473 27.2358L2.08496 22.2106V21.7769L20.9557 26.8313Z" fill="#100801"/>
<path d="M21.7216 27.0395L21.6138 27.4424L22.3792 27.6473L22.487 27.2445L21.7216 27.0395Z" fill="#100801"/>
<path d="M37.412 31.2436L37.3042 31.6465L38.0696 31.8513L38.1774 31.4484L37.412 31.2436Z" fill="#100801"/>
<path d="M23.2505 27.4487L23.1426 27.8516L36.5364 31.4404L36.6444 31.0376L23.2505 27.4487Z" fill="#100801"/>
<path d="M38.9365 31.6445L38.8286 32.0474L44.0492 33.4462L44.1571 33.0434L38.9365 31.6445Z" fill="#100801"/>
<path d="M43.4379 35.7604L43.3336 36.1607L33.1455 33.4333L33.2539 33.0288L43.4379 35.7604Z" fill="#100801"/>
<path d="M14.1182 27.9019L14.0103 28.3047L30.8482 32.8164L30.9562 32.4136L14.1182 27.9019Z" fill="#100801"/>
<path d="M11.8185 27.2861L11.7101 27.6865L2.08496 25.1092V24.6797L11.8185 27.2861Z" fill="#100801"/>
<path d="M31.7243 32.6231L31.6162 33.0259L32.3815 33.2312L32.4896 32.8284L31.7243 32.6231Z" fill="#100801"/>
<path d="M12.5873 27.4912L12.4795 27.894L13.2449 28.0989L13.3527 27.696L12.5873 27.4912Z" fill="#100801"/>
<path d="M7.48001 17.4175L7.37207 17.8203L26.5061 22.9473L26.6141 22.5444L7.48001 17.4175Z" fill="#100801"/>
<path d="M27.3795 22.7564L27.2715 23.1592L28.0368 23.3644L28.1448 22.9616L27.3795 22.7564Z" fill="#100801"/>
<path d="M42.6867 26.8575L42.5786 27.2603L43.3439 27.4656L43.452 27.0628L42.6867 26.8575Z" fill="#100801"/>
<path d="M5.94785 17.0098L5.83984 17.4126L6.60517 17.6178L6.71318 17.215L5.94785 17.0098Z" fill="#100801"/>
<path d="M5.18351 16.806L5.07508 17.2105L2.08496 16.4098V15.9761L5.18351 16.806Z" fill="#100801"/>
<path d="M28.9102 23.1655L28.8022 23.5684L41.8134 27.0547L41.9213 26.6519L28.9102 23.1655Z" fill="#100801"/>
<path d="M45.6151 27.6368L45.5067 28.0413L44.1138 27.666L44.2222 27.2656L45.6151 27.6368Z" fill="#100801"/>
<path d="M9.12991 12.0625L9.02197 12.4653L23.7451 16.4104L23.8531 16.0076L9.12991 12.0625Z" fill="#100801"/>
<path d="M24.6231 16.2139L24.5151 16.6167L25.2805 16.8219L25.3885 16.4191L24.6231 16.2139Z" fill="#100801"/>
<path d="M41.0787 20.6236L40.9707 21.0264L41.736 21.2316L41.844 20.8288L41.0787 20.6236Z" fill="#100801"/>
<path d="M7.60117 11.6533L7.49316 12.0562L8.25849 12.2614L8.3665 11.8586L7.60117 11.6533Z" fill="#100801"/>
<path d="M6.83496 11.4431L6.72653 11.8476L2.08496 10.6048V10.1753L6.83496 11.4431Z" fill="#100801"/>
<path d="M26.1509 16.6265L26.043 17.0293L40.2022 20.8232L40.3101 20.4204L26.1509 16.6265Z" fill="#100801"/>
<path d="M47.0665 22.2235L46.9581 22.628L42.5 21.4311L42.6084 21.0308L47.0665 22.2235Z" fill="#100801"/>
<path d="M38.7183 28.6929L38.6104 29.0957L44.7776 30.7482L44.8855 30.3454L38.7183 28.6929Z" fill="#100801"/>
<path d="M15.5679 22.4873L15.46 22.8901L36.3181 28.4791L36.426 28.0762L15.5679 22.4873Z" fill="#100801"/>
<path d="M13.2739 21.873L13.1655 22.2775L2.08496 19.3041V18.8745L13.2739 21.873Z" fill="#100801"/>
<path d="M37.1881 28.2803L37.0801 28.6831L37.8454 28.8883L37.9534 28.4855L37.1881 28.2803Z" fill="#100801"/>
<path d="M14.0395 22.0796L13.9316 22.4824L14.697 22.6874L14.8049 22.2845L14.0395 22.0796Z" fill="#100801"/>
<path d="M46.3407 24.934L46.2323 25.3343L36.8115 22.8113L36.92 22.4067L46.3407 24.934Z" fill="#100801"/>
<path d="M17.0186 17.0791L16.9106 17.4819L34.514 22.1987L34.6219 21.7959L17.0186 17.0791Z" fill="#100801"/>
<path d="M14.721 16.4598L14.6168 16.8643L2.08496 13.5114V13.0776L14.721 16.4598Z" fill="#100801"/>
<path d="M35.3893 22.001L35.2812 22.4038L36.0465 22.6092L36.1546 22.2064L35.3893 22.001Z" fill="#100801"/>
<path d="M15.4843 16.6675L15.3765 17.0703L16.1419 17.2751L16.2497 16.8723L15.4843 16.6675Z" fill="#100801"/>
<path d="M50.0189 19.2794L48.601 24.5715H0V5.0127L49.4309 18.2576C49.8771 18.3786 50.1398 18.8331 50.0189 19.2794Z" fill="#FA7D1E"/>
<path d="M56.1659 0H0.834065C0.373424 0 0 0.373424 0 0.834065V22.4864C0 22.947 0.373424 23.3205 0.834065 23.3205H56.1659C56.6266 23.3205 57 22.947 57 22.4864V0.834065C57 0.373424 56.6266 0 56.1659 0Z" fill="#4B4B4C"/>
<path d="M54.9146 2.08496H2.08496V21.2351H54.9146V2.08496Z" fill="#FA7D1E"/>
<path d="M44.7348 15.6553H26.1143V16.0723H44.7348V15.6553Z" fill="#100801"/>
<path d="M25.3221 15.6553H24.5298V16.0723H25.3221V15.6553Z" fill="#100801"/>
<path d="M9.07849 15.6553H8.28613V16.0723H9.07849V15.6553Z" fill="#100801"/>
<path d="M46.3202 15.6553H45.5278V16.0723H46.3202V15.6553Z" fill="#100801"/>
<path d="M54.9152 15.6509H47.1167V16.0679H54.9152V15.6509Z" fill="#100801"/>
<path d="M23.7379 15.6553H9.87158V16.0723H23.7379V15.6553Z" fill="#100801"/>
<path d="M7.49387 15.6509H2.08496V16.0679H7.49387V15.6509Z" fill="#100801"/>
<path d="M12.6317 18.4575H2.08496V18.8746H12.6317V18.4575Z" fill="#100801"/>
<path d="M32.4451 18.4575H15.0132V18.8746H32.4451V18.4575Z" fill="#100801"/>
<path d="M49.8354 18.4575H34.8223V18.8746H49.8354V18.4575Z" fill="#100801"/>
<path d="M54.9153 18.4575H52.2129V18.8746H54.9153V18.4575Z" fill="#100801"/>
<path d="M14.2167 18.4575H13.4243V18.8746H14.2167V18.4575Z" fill="#100801"/>
<path d="M34.0302 18.4575H33.2378V18.8746H34.0302V18.4575Z" fill="#100801"/>
<path d="M51.4198 18.4575H50.6274V18.8746H51.4198V18.4575Z" fill="#100801"/>
<path d="M41.5654 10.0503H21.7563V10.4673H41.5654V10.0503Z" fill="#100801"/>
<path d="M20.9647 10.0503H20.1724V10.4673H20.9647V10.0503Z" fill="#100801"/>
<path d="M5.95154 10.0503H5.15918V10.4673H5.95154V10.0503Z" fill="#100801"/>
<path d="M43.1503 10.0503H42.3579V10.4673H43.1503V10.0503Z" fill="#100801"/>
<path d="M54.9152 10.0503H43.9473V10.4673H54.9152V10.0503Z" fill="#100801"/>
<path d="M19.3797 10.0503H6.74365V10.4673H19.3797V10.0503Z" fill="#100801"/>
<path d="M4.36613 10.0503H2.08496V10.4673H4.36613V10.0503Z" fill="#100801"/>
<path d="M45.5271 4.4458H26.1143V4.86283H45.5271V4.4458Z" fill="#100801"/>
<path d="M25.3221 4.4458H24.5298V4.86283H25.3221V4.4458Z" fill="#100801"/>
<path d="M8.2865 4.4458H7.49414V4.86283H8.2865V4.4458Z" fill="#100801"/>
<path d="M47.1122 4.4458H46.3198V4.86283H47.1122V4.4458Z" fill="#100801"/>
<path d="M54.9148 4.4458H47.9087V4.86283H54.9148V4.4458Z" fill="#100801"/>
<path d="M23.7373 4.4458H9.07861V4.86283H23.7373V4.4458Z" fill="#100801"/>
<path d="M6.70151 4.4458H2.08496V4.86283H6.70151V4.4458Z" fill="#100801"/>
<path d="M8.46973 12.8491H2.08496V13.2662H8.46973V12.8491Z" fill="#100801"/>
<path d="M32.4455 12.853H10.8516V13.2701H32.4455V12.853Z" fill="#100801"/>
<path d="M48.6469 12.853H34.8223V13.2701H48.6469V12.853Z" fill="#100801"/>
<path d="M54.9153 12.8491H51.0244V13.2662H54.9153V12.8491Z" fill="#100801"/>
<path d="M10.0585 12.853H9.26611V13.2701H10.0585V12.853Z" fill="#100801"/>
<path d="M34.0302 12.853H33.2378V13.2701H34.0302V12.853Z" fill="#100801"/>
<path d="M50.2318 12.853H49.4395V13.2701H50.2318V12.853Z" fill="#100801"/>
<path d="M11.8394 7.24805H2.08496V7.66508H11.8394V7.24805Z" fill="#100801"/>
<path d="M32.4406 7.24805H14.2163V7.66508H32.4406V7.24805Z" fill="#100801"/>
<path d="M49.8354 7.24805H34.8223V7.66508H49.8354V7.24805Z" fill="#100801"/>
<path d="M54.9153 7.24805H52.2129V7.66508H54.9153V7.24805Z" fill="#100801"/>
<path d="M13.4286 7.24805H12.6362V7.66508H13.4286V7.24805Z" fill="#100801"/>
<path d="M34.0302 7.24805H33.2378V7.66508H34.0302V7.24805Z" fill="#100801"/>
<path d="M51.4198 7.24805H50.6274V7.66508H51.4198V7.24805Z" fill="#100801"/>
</g>
<defs>
<clipPath id="clip0_269_4088">
<rect width="57" height="53.7346" fill="white"/>
</clipPath>
</defs>
</svg>
