<svg width="61" height="48" viewBox="0 0 61 48" fill="none" xmlns="http://www.w3.org/2000/svg">
<g clip-path="url(#clip0_269_4040)">
<path d="M59.2234 37.41C59.7419 37.41 60.1661 36.9858 60.1661 36.4673V30.5992C60.1661 30.3258 60.1048 30.0524 59.9917 29.8026L46.601 1.08879C46.29 0.424203 45.6254 0 44.8901 0H20.2015C19.4709 0 18.8016 0.424203 18.4905 1.08879L5.09986 29.8026C4.98203 30.0524 4.92547 30.3258 4.92547 30.5992V33.6393H0.942673C0.424203 33.6393 0 34.0635 0 34.582V41.3975C0 41.916 0.424203 42.3402 0.942673 42.3402H4.92547V46.323C4.92547 46.8414 5.34967 47.2656 5.86814 47.2656H59.2234C59.7419 47.2656 60.1661 46.8414 60.1661 46.323V39.5121C60.1661 38.9937 59.7419 38.5695 59.2234 38.5695H55.2406V37.41H59.2234Z" fill="#4C4240"/>
<path d="M20.5031 2.35645H22.2046H22.709H24.4529H24.9431H26.6918H27.1772H28.94H29.4161H31.1836H31.6596H33.4319H33.9032H35.6707H36.1468H37.9048H38.3903H40.1437H40.6386H42.3825H42.8869H44.5884L57.4323 29.8919H53.7229H53.2139H49.0614H48.5665H44.4093H43.9238H39.7619H39.2859H35.1051H34.6338H30.4577H29.9864H25.8056H25.3296H21.163H20.6775H16.525H16.0301H11.8776H11.3686H7.65918L20.5031 2.35645Z" fill="#FA7D1E"/>
<path d="M2.35645 39.9836V35.9961H6.10357V36.0197H52.8837V39.9836H7.28191H6.81058H2.35645Z" fill="#FFFFDA"/>
<path d="M57.8095 40.9263V44.9091H7.28223V40.9263H52.884H53.3554H57.8095Z" fill="#FFFFDA"/>
<path d="M18.6364 21.5356C17.5618 25.0047 17.0528 26.6402 16.0347 29.8924H16.5296C17.5194 26.7345 18.0331 25.0942 19.0889 21.677L18.6364 21.5404V21.5356Z" fill="#100801"/>
<path d="M26.0413 24.5898C25.8056 26.3574 25.57 28.1249 25.3296 29.8924H25.8056C26.0413 28.1437 26.277 26.3998 26.5079 24.6511L26.0413 24.5898Z" fill="#100801"/>
<path d="M22.9915 19.4805C22.2279 22.9495 21.455 26.4233 20.6772 29.8923H21.158C21.931 26.4562 22.6946 23.0155 23.4534 19.5794L22.9915 19.4805Z" fill="#100801"/>
<path d="M12.3302 27.5117C12.0097 28.3036 11.6892 29.1001 11.3687 29.892H11.8777C12.1746 29.1567 12.4716 28.4214 12.7685 27.6861L12.3302 27.5117Z" fill="#100801"/>
<path d="M30.5755 16.5396C30.3823 20.989 30.1843 25.4384 29.9863 29.8925H30.4577C30.6556 25.4478 30.8536 21.0078 31.0468 16.5631L30.5755 16.5443V16.5396Z" fill="#100801"/>
<path d="M46.9403 24.6884C47.4776 26.423 48.0243 28.1575 48.5664 29.892H49.0613C48.5004 28.1103 47.9442 26.3334 47.388 24.5518L46.9355 24.6932L46.9403 24.6884Z" fill="#100801"/>
<path d="M40.2515 13.277C40.982 16.6707 42.9852 25.7392 43.9232 29.8916H44.4087C43.4848 25.7863 41.4534 16.6 40.7134 13.1733L40.2515 13.2723V13.277Z" fill="#100801"/>
<path d="M34.5298 27.611L34.6335 29.8922H35.1048L35.0011 27.5874L34.5298 27.611Z" fill="#100801"/>
<path d="M37.9048 19.5603C38.362 23.0058 38.8192 26.4465 39.2858 29.892H39.7619C39.2952 26.4277 38.8333 22.9633 38.3714 19.499L37.9048 19.5603Z" fill="#100801"/>
<path d="M47.9253 16.6383C49.6551 21.0311 51.432 25.4852 53.2137 29.8922H53.7227C51.9175 25.424 50.117 20.9133 48.3636 16.4639L47.9253 16.6383Z" fill="#100801"/>
<path d="M18.4903 13.2537C18.6317 12.9238 21.9546 4.33135 22.704 2.35645H22.1997C21.3466 4.58587 18.1745 12.7918 18.0566 13.0652L18.4903 13.249V13.2537Z" fill="#100801"/>
<path d="M47.3596 13.9136C45.8608 10.0911 44.3619 6.20726 42.8867 2.35645H42.3823C43.8765 6.26382 45.4036 10.2042 46.9213 14.0833L47.3596 13.9089V13.9136Z" fill="#100801"/>
<path d="M39.6955 10.7227L40.1575 10.6237C39.3138 6.69745 39.2949 6.61261 38.8189 4.36905L38.3899 2.35645H37.9092L38.3569 4.46803C38.833 6.71159 38.8519 6.79644 39.7003 10.7227H39.6955Z" fill="#100801"/>
<path d="M38.0365 16.9443C37.3955 12.0801 36.7686 7.22064 36.1465 2.35645H35.6704C36.2926 7.23949 36.9242 12.1225 37.5652 17.0056L38.0318 16.9443H38.0365Z" fill="#100801"/>
<path d="M19.8711 19.1219C21.3841 14.2106 23.4486 7.39032 24.9427 2.35645H24.4525C22.9631 7.37618 20.9222 14.121 19.4233 18.9852L19.8758 19.1219H19.8711Z" fill="#100801"/>
<path d="M34.1057 7.16879L33.903 2.35645H33.4316L33.6343 7.19236L34.1057 7.16879Z" fill="#100801"/>
<path d="M41.421 4.9865C41.1571 4.10982 40.8979 3.23313 40.6386 2.35645H40.1484C40.4218 3.27555 40.6952 4.19937 40.9733 5.12319L41.4258 4.9865H41.421Z" fill="#100801"/>
<path d="M24.0098 17.0292C25.075 12.1555 26.1402 7.22535 27.1724 2.35645H26.6917C25.6642 7.18764 24.6084 12.0848 23.5479 16.9255L24.0098 17.0244V17.0292Z" fill="#100801"/>
<path d="M28.5198 9.33694C28.8215 7.00854 29.1184 4.68485 29.4154 2.35645H28.9393C28.6471 4.66128 28.3502 6.97083 28.0532 9.27567L28.5198 9.33694Z" fill="#100801"/>
<path d="M31.1549 14.0079C31.3246 10.1241 31.4896 6.24026 31.6545 2.35645H31.1832C31.0182 6.23554 30.8533 10.1099 30.6836 13.989L31.1549 14.0079Z" fill="#100801"/>
<path d="M19.1605 19.8353L18.8979 20.6865L19.3484 20.8254L19.6109 19.9742L19.1605 19.8353Z" fill="#100801"/>
<path d="M15.0968 21.8556C15.4739 20.9098 15.8651 19.9247 16.2704 18.9003L17.4912 15.7989L17.0529 15.6245L15.8274 18.7259C15.422 19.7503 15.0308 20.7354 14.6537 21.6812L13.3481 24.9617L13.7865 25.1361L15.0921 21.8556H15.0968Z" fill="#100801"/>
<path d="M17.7218 13.9291L17.3877 14.7803L17.8264 14.9525L18.1605 14.1013L17.7218 13.9291Z" fill="#100801"/>
<path d="M13.0153 25.8081L12.6743 26.6616L13.112 26.8365L13.453 25.983L13.0153 25.8081Z" fill="#100801"/>
<path d="M23.365 17.774L23.1792 18.626L23.6397 18.7264L23.8255 17.8744L23.365 17.774Z" fill="#100801"/>
<path d="M30.6509 14.8381L30.6143 15.6904L31.0852 15.7107L31.1218 14.8583L30.6509 14.8381Z" fill="#100801"/>
<path d="M38.1465 17.8008L37.6792 17.8623L37.7912 18.7128L38.2585 18.6513L38.1465 17.8008Z" fill="#100801"/>
<path d="M28.1905 11.8918L27.7238 11.8306C27.2808 15.2336 26.833 18.6367 26.3853 22.0397L26.8519 22.101C27.3044 18.6979 27.7521 15.2949 28.1905 11.8918Z" fill="#100801"/>
<path d="M27.9445 10.1303L27.834 10.981L28.3014 11.0417L28.4119 10.191L27.9445 10.1303Z" fill="#100801"/>
<path d="M26.734 22.9537L26.2674 22.8877L26.1543 23.7408L26.6209 23.8021L26.734 22.9537Z" fill="#100801"/>
<path d="M34.4167 25.0562L34.888 25.0374C34.6618 19.9328 34.4355 14.8282 34.214 9.72363L33.7427 9.74249C33.9642 14.8471 34.1857 19.9516 34.4167 25.0562Z" fill="#100801"/>
<path d="M34.1457 8.02371L33.6748 8.04395L33.7114 8.89628L34.1823 8.87605L34.1457 8.02371Z" fill="#100801"/>
<path d="M34.9255 25.8905L34.4546 25.9116L34.4928 26.7639L34.9637 26.7427L34.9255 25.8905Z" fill="#100801"/>
<path d="M40.3444 11.4793L39.8838 11.5791L40.0684 12.4313L40.529 12.3316L40.3444 11.4793Z" fill="#100801"/>
<path d="M47.6961 14.7682L47.2573 14.9404L47.5914 15.7916L48.0302 15.6194L47.6961 14.7682Z" fill="#100801"/>
<path d="M46.1485 22.1388L46.601 22.0021C45.1163 17.2133 43.6363 12.3491 42.1893 7.5415L41.7368 7.67819C43.1838 12.4858 44.6685 17.3547 46.1485 22.1435V22.1388Z" fill="#100801"/>
<path d="M41.6751 5.83827L41.2236 5.97363L41.4781 6.82242L41.9296 6.68705L41.6751 5.83827Z" fill="#100801"/>
<path d="M46.8641 22.8513L46.4141 22.9912L46.6785 23.8419L47.1286 23.7019L46.8641 22.8513Z" fill="#100801"/>
<path d="M57.5735 31.3062H7.51758V34.6055H57.5735V31.3062Z" fill="#FA7D1E"/>
</g>
<defs>
<clipPath id="clip0_269_4040">
<rect width="60.1661" height="47.2656" fill="white"/>
</clipPath>
</defs>
</svg>
