<svg width="94" height="49" viewBox="0 0 94 49" fill="none" xmlns="http://www.w3.org/2000/svg">
<g clip-path="url(#clip0_269_4278)">
<path d="M46.0956 13.5043C41.2747 12.7485 37.5193 8.987 36.7515 4.14831C36.3706 1.74384 34.3054 0 31.8414 0H28.8536C28.2228 0 27.6157 0.24997 27.1693 0.696344L0.696344 27.1693C0.24997 27.6157 0 28.2228 0 28.8536V47.8097C0 48.4644 0.535649 49 1.19033 49H21.3962C22.0271 49 22.6342 48.75 23.0805 48.3037L49.5535 21.8307C49.9999 21.3843 50.2498 20.7772 50.2498 20.1464V18.4144C50.2498 15.9802 48.4584 13.8733 46.0956 13.5043Z" fill="#4C4240"/>
<path d="M20.8008 46.0241H2.97559V29.4487H5.3741C6.33827 29.4487 7.18341 30.1391 7.33815 31.0854C8.30232 37.1978 13.0517 41.9472 19.1641 42.9114C20.0985 43.0602 20.8008 43.9053 20.8008 44.8814V46.0241Z" fill="#FA7D1E"/>
<path d="M47.2744 19.9021L21.9918 45.1788V44.8812C21.9918 43.3278 20.855 41.9768 19.3493 41.7387C13.7547 40.8519 9.39809 36.5013 8.51724 30.9008C8.27917 29.395 6.92815 28.2582 5.37476 28.2582H3.81543L29.0981 2.97559H31.8418C32.8179 2.97559 33.663 3.67788 33.8118 4.61229C34.7819 10.7306 39.5313 15.486 45.6377 16.4442C46.5662 16.587 47.2744 17.4381 47.2744 18.4142V19.9021Z" fill="#FA7D1E"/>
<path d="M47.2743 18.4144V19.9023L21.9917 45.179V44.8814C21.9917 43.328 20.8549 41.977 19.3491 41.7389L44.7984 16.2837C45.0781 16.3492 45.3579 16.4027 45.6376 16.4444C46.5661 16.5872 47.2743 17.4383 47.2743 18.4144Z" fill="#100801"/>
<path d="M79.0026 0.410989L51.9463 27.4672C51.5 27.9136 51.25 28.5207 51.25 29.1515V47.81C51.25 48.4647 51.7856 49.0003 52.4403 49.0003H64.5996C65.2304 49.0003 65.8375 48.7504 66.2839 48.304L93.0961 21.4918C93.3223 21.2656 93.4532 20.9502 93.4473 20.6288C93.2925 11.0585 88.7097 4.42836 80.3774 0.184826C79.9191 -0.0472884 79.3656 0.0479381 79.0026 0.410989Z" fill="#4C4240"/>
<path d="M54.2256 46.0239V30.1211C60.2308 33.4243 63.8197 39.6914 63.9982 46.0239H54.2256Z" fill="#FA7D1E"/>
<path d="M80.2225 3.4043L54.6304 28.9905C58.3561 30.9664 61.4272 34.1982 63.2841 38.2036L88.8762 12.6115C87.1502 8.70127 84.1268 5.40405 80.2225 3.4043Z" fill="#FA7D1E"/>
<path d="M63.2842 38.2035C64.2781 40.352 64.9328 42.7148 65.147 45.2324L90.4773 19.9081C90.4416 17.3608 89.8821 14.8849 88.8763 12.6113L63.2842 38.2035Z" fill="#100801"/>
</g>
<defs>
<clipPath id="clip0_269_4278">
<rect width="93.447" height="49" fill="white"/>
</clipPath>
</defs>
</svg>
