<svg width="56" height="53" viewBox="0 0 56 53" fill="none" xmlns="http://www.w3.org/2000/svg">
<g clip-path="url(#clip0_269_3939)">
<path d="M55.4575 23.9935V27.7508C55.4575 28.1814 55.2869 28.5957 54.9822 28.9003L31.3581 52.5245C31.0534 52.8291 30.6391 52.9997 30.2085 52.9997H0.812385C0.365573 52.9997 0 52.6342 0 52.1874V48.4301C0 47.9995 0.170601 47.5852 0.475245 47.2806L24.0994 23.6564C24.404 23.3518 24.8184 23.1812 25.2489 23.1812H54.6451C55.0919 23.1812 55.4575 23.5467 55.4575 23.9935Z" fill="#4C4240"/>
<path d="M53.4265 27.5844L30.6147 50.3962V48.6008L53.4265 25.7891V27.5844Z" fill="#E5DCB5"/>
<path d="M29.8021 48.8364H2.03076V50.9689H29.8021V48.8364Z" fill="#FFFFDA"/>
<path d="M52.8536 25.2124L45.1319 32.9341L42.8613 35.2047L42.5566 35.5094L40.286 37.78C40.1885 37.8815 40.087 37.9831 39.9854 38.0846C39.2136 38.8523 38.4541 39.6119 37.7189 40.3512C37.6132 40.4527 37.5158 40.5543 37.4142 40.6558L32.5683 45.5017L32.2637 45.8064C31.0695 46.9965 30.2612 47.8048 30.0418 48.0242H2.60352L25.4153 25.2124H52.8536Z" fill="#FFFFDA"/>
<path d="M49.8198 25.2124L27.008 48.0242H26.5693L49.3852 25.2124H49.8198Z" fill="#E5DCB5"/>
<path d="M46.3426 25.2124L23.5308 48.0242H23.0962L45.912 25.2124H46.3426Z" fill="#E5DCB5"/>
<path d="M42.8655 25.2124L20.0538 48.0242H19.6191L42.435 25.2124H42.8655Z" fill="#E5DCB5"/>
<path d="M39.3846 25.2124L16.5728 48.0242H16.1382L38.954 25.2124H39.3846Z" fill="#E5DCB5"/>
<path d="M35.9153 25.2124L13.1036 48.0242H12.6689L35.4848 25.2124H35.9153Z" fill="#E5DCB5"/>
<path d="M32.4427 25.2124L9.63091 48.0242H9.19629L32.0081 25.2124H32.4427Z" fill="#E5DCB5"/>
<path d="M28.9656 25.2124L6.15386 48.0242H5.71924L28.5351 25.2124H28.9656Z" fill="#E5DCB5"/>
<path d="M55.4575 12.4013V16.1585C55.4575 16.5891 55.2869 17.0034 54.9822 17.3081L31.3581 40.9322C31.0534 41.2369 30.6391 41.4075 30.2085 41.4075H0.812385C0.365573 41.4075 0 41.0419 0 40.5951V36.8378C0 36.4072 0.170601 35.9929 0.475245 35.6883L5.12615 31.0374L24.0994 12.0641C24.404 11.7595 24.8184 11.5889 25.2489 11.5889H54.6451C55.0919 11.5889 55.4575 11.9544 55.4575 12.4013Z" fill="#4C4240"/>
<path d="M53.4265 15.9917L30.6147 38.8034V37.0081L53.4265 14.1963V15.9917Z" fill="#E5DCB5"/>
<path d="M29.8021 37.2437H2.03076V39.3762H29.8021V37.2437Z" fill="#FFFFDA"/>
<path d="M52.8536 13.6196L47.7071 18.7661C46.9882 19.485 46.2286 20.2446 45.4365 21.0367L45.1319 21.3413C44.3926 22.0806 43.629 22.8443 42.8613 23.612L42.5566 23.9166L40.286 26.1872C40.1885 26.2888 40.087 26.3903 39.9854 26.4919C39.2136 27.2596 38.4541 28.0192 37.7189 28.7584C37.6132 28.86 37.5158 28.9615 37.4142 29.0631C36.6221 29.8551 35.8585 30.6188 35.1436 31.3337L34.839 31.6383C33.9981 32.4791 33.2304 33.2469 32.5683 33.9089L32.2637 34.2136C31.0695 35.4037 30.2612 36.2121 30.0418 36.4314H2.60352C3.00158 36.0333 3.78147 35.2534 4.82133 34.2136L5.12597 33.9089C5.79619 33.2387 6.56389 32.471 7.39659 31.6383L7.70123 31.3337C8.41613 30.6188 9.17977 29.8551 9.97185 29.0631C10.0693 28.9656 10.1749 28.86 10.2765 28.7584L12.8477 26.1872C13.6032 25.4317 14.3628 24.6721 15.1183 23.9166L15.423 23.612C16.1947 22.8402 16.9543 22.0806 17.6936 21.3413L17.9982 21.0367C18.7903 20.2446 19.5499 19.485 20.2688 18.7661L20.5735 18.4614L22.84 16.1949C22.9456 16.0893 23.0472 15.9877 23.1447 15.8902C24.217 14.8179 25.0172 14.0177 25.4153 13.6196H52.8536Z" fill="#FFFFDA"/>
<path d="M32.5683 33.9092L32.2637 34.2138H4.82129L5.12593 33.9092H32.5683Z" fill="#E5DCB5"/>
<path d="M35.1435 31.334L34.8389 31.6386H7.39648L7.70113 31.334H35.1435Z" fill="#E5DCB5"/>
<path d="M37.7192 28.7588C37.6136 28.8603 37.5161 28.9619 37.4145 29.0634H9.97217C10.0697 28.9659 10.1753 28.8603 10.2768 28.7588H37.7192Z" fill="#E5DCB5"/>
<path d="M40.2859 26.1875C40.1884 26.289 40.0869 26.3906 39.9853 26.4921H12.543L12.8476 26.1875H40.2859Z" fill="#E5DCB5"/>
<path d="M42.8616 23.6123L42.557 23.9169H15.1187L15.4233 23.6123H42.8616Z" fill="#E5DCB5"/>
<path d="M45.4368 21.0371L45.1322 21.3418H17.6938L17.9985 21.0371H45.4368Z" fill="#E5DCB5"/>
<path d="M48.012 18.4619L47.7073 18.7666H20.269L20.5737 18.4619H48.012Z" fill="#E5DCB5"/>
<path d="M50.5833 15.8906L50.2786 16.1953H22.8403C22.9459 16.0897 23.0475 15.9881 23.145 15.8906H50.5833Z" fill="#E5DCB5"/>
<path d="M50.8353 11.5889L32.2195 30.2047C31.6874 30.7368 30.9644 31.0374 30.2089 31.0374H5.12646L24.0997 12.0641C24.4044 11.7595 24.8187 11.5889 25.2492 11.5889H50.8353Z" fill="#FFFFDA"/>
<path d="M54.6451 0H25.2489C24.8184 0 24.404 0.170601 24.0994 0.475245L19.4769 5.09772H8.34726C5.313 5.09772 2.84335 8.11166 2.84335 11.8202C2.84335 14.7082 4.34626 17.1819 6.44628 18.1284L0.475245 24.0994C0.170601 24.404 0 24.8184 0 25.2489V29.0062C0 29.453 0.365573 29.8186 0.812385 29.8186H30.2085C30.6391 29.8186 31.0534 29.648 31.3581 29.3433L54.9822 5.71919C55.2869 5.41455 55.4575 5.00023 55.4575 4.56967V0.812385C55.4575 0.365573 55.0919 0 54.6451 0Z" fill="#4C4240"/>
<path d="M25.4156 2.03076H52.8498C40.1726 14.7527 40.9606 13.8835 39.7826 14.9842C39.2261 15.4839 38.5518 16.3084 36.9352 16.3084C35.083 16.3084 33.6653 14.2165 33.6653 11.82C33.6653 9.42347 35.1317 7.33157 36.9393 7.33157C37.2723 7.33157 37.5485 7.05536 37.5485 6.72228C37.5485 6.38921 37.2723 6.113 36.9393 6.113H21.3374L25.4196 2.03076H25.4156Z" fill="#FA7D1E"/>
<path d="M5.26855 13.3149C5.71943 15.0534 6.92582 16.3086 8.34749 16.3086H34.1651C33.3649 15.5084 32.849 14.4482 32.6094 13.3149H5.26855Z" fill="#100801"/>
<path d="M32.4428 11.82C32.4428 10.0002 33.1171 8.37546 34.1651 7.33154H8.34749C6.54399 7.33154 5.07764 9.3422 5.07764 11.82C5.07764 12.344 5.14669 12.8476 5.26855 13.3148H32.6094C32.5038 12.8233 32.4428 12.3196 32.4428 11.82Z" fill="#FA7D1E"/>
<path d="M29.8021 27.7878H2.03076V25.6553H29.8021V27.7878Z" fill="#FA7D1E"/>
<path d="M30.0418 24.8428H2.60352L9.91904 17.5273H36.9308C36.9674 17.5273 37.2111 17.511 37.3898 17.4907L30.0418 24.8428Z" fill="#FA7D1E"/>
<path d="M53.4265 4.40328L30.6147 27.211V25.4197L53.4265 2.60791V4.40328Z" fill="#100801"/>
<path d="M29.063 21.2197L25.4438 24.843H25.8744L29.2824 21.435L29.063 21.2197Z" fill="#100801"/>
<path d="M17.6816 19.0262L19.1804 17.5273H18.7499L17.4663 18.8109L17.6816 19.0262Z" fill="#100801"/>
<path d="M31.0043 19.7127L33.1897 17.5273H32.7591L30.7891 19.4974L31.0043 19.7127Z" fill="#100801"/>
<path d="M28.0841 17.5273L20.7686 24.8429H21.1991L28.5146 17.5273H28.0841Z" fill="#100801"/>
<path d="M11.3365 20.7078L14.517 17.5273H14.0824L11.1172 20.4925L11.3365 20.7078Z" fill="#100801"/>
<path d="M23.4171 17.5273L16.1016 24.8429H16.5321L23.8517 17.5273H23.4171Z" fill="#100801"/>
<path d="M15.7441 20.5371L11.4385 24.8427H11.869L15.9594 20.7524L15.7441 20.5371Z" fill="#100801"/>
<path d="M9.39516 22.2148L6.76709 24.8429H7.19765L9.61044 22.4301L9.39516 22.2148Z" fill="#100801"/>
<path d="M16.8875 19.3894L16.3159 19.9609L16.5313 20.1764L17.1029 19.6048L16.8875 19.3894Z" fill="#100801"/>
<path d="M10.5481 21.0662L9.97363 21.6406L10.189 21.856L10.7635 21.2816L10.5481 21.0662Z" fill="#100801"/>
<path d="M29.6396 20.6471L29.8549 20.8624L30.4277 20.2897L30.2164 20.0703L29.6396 20.6471Z" fill="#100801"/>
</g>
<defs>
<clipPath id="clip0_269_3939">
<rect width="55.4575" height="53" fill="white"/>
</clipPath>
</defs>
</svg>
