<svg width="79" height="53" viewBox="0 0 79 53" fill="none" xmlns="http://www.w3.org/2000/svg">
<g clip-path="url(#clip0_269_4230)">
<path d="M75.8583 12.377H28.8076L0 41.1846V48.2244H4.3668V52.5912H51.4128L75.8583 28.1457V21.1058H74.1646L75.8583 19.4168V12.377Z" fill="#4C4240"/>
<path d="M73.4931 27.1661L51.3374 49.3171V46.2939L73.4931 24.1382V27.1661Z" fill="#FA7D1E"/>
<path d="M72.8212 14.7422L50.6702 36.8932H7.63623L25.5623 18.9671L29.7919 14.7422H72.8212Z" fill="#FA7D1E"/>
<path d="M2.36572 42.4375H6.73252V38.312H49.9179V41.2547H45.5606V47.0409H49.9179V50.2249H6.73252V45.8581H2.36572V42.4375Z" fill="#FA7D1E"/>
<path d="M73.4931 18.4371L69.4054 22.5247H69.4007L51.3374 40.5881V37.5649L73.4931 15.4092V18.4371Z" fill="#FA7D1E"/>
<path d="M36.4161 18.4689L24.7808 30.084L25.0314 30.3351L36.6668 18.72L36.4161 18.4689Z" fill="#100801"/>
<path d="M37.7513 17.1259L37.085 17.791L37.3356 18.0421L38.002 17.377L37.7513 17.1259Z" fill="#100801"/>
<path d="M24.1233 30.7577L23.457 31.4229L23.7077 31.674L24.374 31.0088L24.1233 30.7577Z" fill="#100801"/>
<path d="M23.0408 32.3465L18.4942 36.893H17.9927L22.79 32.0957L23.0408 32.3465Z" fill="#100801"/>
<path d="M40.6354 14.7422L38.6673 16.7103L38.4165 16.4596L40.1339 14.7422H40.6354Z" fill="#100801"/>
<path d="M41.8929 23.9451L33.9292 31.8921L34.1798 32.1433L42.1435 24.1963L41.8929 23.9451Z" fill="#100801"/>
<path d="M43.2195 22.6014L42.5532 23.2666L42.8039 23.5177L43.4702 22.8526L43.2195 22.6014Z" fill="#100801"/>
<path d="M33.2626 32.564L32.5962 33.229L32.8468 33.4802L33.5133 32.8151L33.2626 32.564Z" fill="#100801"/>
<path d="M32.1855 34.1492L29.4414 36.8932H28.9399L31.9347 33.8984L32.1855 34.1492Z" fill="#100801"/>
<path d="M51.5829 14.7422L44.1409 22.1889L43.8901 21.9334L51.0814 14.7422H51.5829Z" fill="#100801"/>
<path d="M35.1708 14.7422L29.9382 19.9748L29.6875 19.724L34.6693 14.7422H35.1708Z" fill="#100801"/>
<path d="M27.6891 21.73L16.3853 33.0142L16.6359 33.2653L27.9398 21.9811L27.6891 21.73Z" fill="#100801"/>
<path d="M14.6428 35.2752L13.0201 36.8932H12.5186L14.3921 35.0244L14.6428 35.2752Z" fill="#100801"/>
<path d="M29.0227 20.3857L28.353 21.0542L28.6037 21.3053L29.2734 20.6368L29.0227 20.3857Z" fill="#100801"/>
<path d="M15.7211 33.6846L15.0547 34.3496L15.3053 34.6008L15.9718 33.9357L15.7211 33.6846Z" fill="#100801"/>
<path d="M46.1097 14.7422L35.408 25.4439L35.1572 25.1932L45.6082 14.7422H46.1097Z" fill="#100801"/>
<path d="M33.4067 27.4498L23.9634 36.8931H23.4619L33.1559 27.1943L33.4067 27.4498Z" fill="#100801"/>
<path d="M34.4932 25.8655L33.8247 26.5352L34.0758 26.7858L34.7443 26.1162L34.4932 25.8655Z" fill="#100801"/>
<path d="M44.8796 26.9251L34.9112 36.8935H34.4097L44.6288 26.6743L44.8796 26.9251Z" fill="#100801"/>
<path d="M45.9649 25.3377L45.2964 26.0073L45.5475 26.258L46.216 25.5883L45.9649 25.3377Z" fill="#100801"/>
<path d="M57.0574 14.7422L46.8855 24.9235L46.6348 24.6728L56.5559 14.7422H57.0574Z" fill="#100801"/>
<path d="M55.3539 27.3932L45.8492 36.8932H45.3477L55.1032 27.1377L55.3539 27.3932Z" fill="#100801"/>
<path d="M56.4405 25.8108L55.772 26.4805L56.0231 26.7312L56.6916 26.0615L56.4405 25.8108Z" fill="#100801"/>
<path d="M68.0002 14.7422L57.3552 25.3919L57.1045 25.1411L67.4987 14.7422H68.0002Z" fill="#100801"/>
<path d="M62.5304 14.7422L60.302 16.9705L60.0513 16.7198L62.0289 14.7422H62.5304Z" fill="#100801"/>
<path d="M58.0541 18.7261L44.4131 32.3433L44.6638 32.5944L58.3048 18.9772L58.0541 18.7261Z" fill="#100801"/>
<path d="M42.6698 34.6033L40.3799 36.8931H39.8784L42.419 34.3525L42.6698 34.6033Z" fill="#100801"/>
<path d="M59.3848 17.3875L58.7163 18.0571L58.9674 18.3078L59.6359 17.6382L59.3848 17.3875Z" fill="#100801"/>
<path d="M43.7493 33.016L43.083 33.6812L43.3337 33.9323L44 33.2671L43.7493 33.016Z" fill="#100801"/>
<path d="M31.3483 1.18262L6.25928 26.2763H50.6275L75.7212 1.18262H31.3483ZM48.8675 22.0183H16.5399L33.113 5.4406H65.4405L48.8675 22.0183Z" fill="#FFFFDA"/>
<path d="M51.1192 27.4545H3.40137L30.8606 0H78.5784L51.1239 27.4545H51.1192ZM9.11653 25.089H50.1398L72.8633 2.36555H31.84L9.11653 25.089Z" fill="#4C4240"/>
</g>
<defs>
<clipPath id="clip0_269_4230">
<rect width="78.574" height="52.5908" fill="white"/>
</clipPath>
</defs>
</svg>
