<svg width="189" height="44" viewBox="0 0 189 44" fill="none" xmlns="http://www.w3.org/2000/svg">
<g clip-path="url(#clip0_105_966)">
<path d="M77.72 28.9916C77.8243 29.7342 77.8205 30.4023 77.7086 30.9962C77.6046 31.5888 77.4102 32.1169 77.1252 32.5803C76.8482 33.0426 76.4978 33.4461 76.074 33.7906C75.6502 34.1351 75.1746 34.4299 74.6473 34.675C74.1279 34.919 73.5659 35.1201 72.9612 35.2784C72.3645 35.4355 71.7508 35.5584 71.12 35.647C70.2897 35.7637 69.5142 35.8076 68.7936 35.7786C68.0742 35.7576 67.3846 35.6591 66.7248 35.4831C66.0718 35.2981 65.4282 35.0344 64.7939 34.692C64.1675 34.3485 63.5283 33.9132 62.8761 33.386L64.9709 30.5636C65.2718 31.0831 65.651 31.5509 66.1085 31.9669C66.5648 32.3751 67.048 32.7142 67.5583 32.9845C68.0765 33.2536 68.6005 33.4486 69.1305 33.5696C69.6604 33.6905 70.1489 33.7195 70.596 33.6567C71.123 33.5826 71.613 33.4771 72.0659 33.3402C72.5178 33.1953 72.9031 33.0109 73.2217 32.787C73.5403 32.5631 73.7753 32.2939 73.9265 31.9796C74.0846 31.6561 74.1328 31.2748 74.071 30.8357C74.0239 30.5003 73.9077 30.2236 73.7223 30.0054C73.5369 29.7872 73.3087 29.6116 73.0376 29.4787C72.7734 29.3367 72.4772 29.2277 72.149 29.1517C71.8208 29.0757 71.4874 29.0208 71.1488 28.987C70.8171 28.944 70.4911 28.9125 70.1707 28.8924C69.8492 28.8643 69.5637 28.8312 69.314 28.793C68.8239 28.7234 68.3127 28.6487 67.7804 28.5689C67.2469 28.481 66.7187 28.372 66.1956 28.242C65.6725 28.112 65.1695 27.9506 64.6865 27.758C64.2103 27.5562 63.7799 27.3032 63.3952 26.9991C63.0093 26.6869 62.6841 26.3133 62.4194 25.8783C62.1536 25.4352 61.978 24.9103 61.8928 24.3035C61.7906 23.577 61.7881 22.9219 61.8852 22.3383C61.9892 21.7456 62.1757 21.2187 62.4447 20.7575C62.7137 20.2963 63.0521 19.8946 63.46 19.5523C63.8667 19.202 64.3257 18.9055 64.8371 18.6626C65.3474 18.4118 65.8968 18.2084 66.4856 18.0524C67.0811 17.8872 67.6943 17.7604 68.3251 17.6717C69.1874 17.5505 69.981 17.5204 70.7061 17.5813C71.4391 17.6412 72.1258 17.7767 72.7661 17.9879C73.4065 18.1992 74.0033 18.4776 74.5567 18.8232C75.1169 19.1597 75.6519 19.5486 76.1618 19.9899L74.067 22.8124C73.7946 22.2645 73.4542 21.7831 73.0458 21.3682C72.6454 20.9523 72.2146 20.6098 71.7534 20.3408C71.2911 20.0638 70.82 19.8695 70.3403 19.7578C69.8593 19.6381 69.4073 19.608 68.9841 19.6675C68.4332 19.7449 67.9318 19.8561 67.48 20.001C67.027 20.1379 66.6452 20.3178 66.3345 20.5406C66.0307 20.7543 65.8078 21.0217 65.6657 21.3429C65.5224 21.6562 65.4811 22.0284 65.5417 22.4595C65.59 22.8028 65.6988 23.0847 65.8682 23.3052C66.0376 23.5256 66.2458 23.704 66.4929 23.8402C66.7481 23.9753 67.0272 24.0786 67.3303 24.15C67.6323 24.2134 67.9407 24.2637 68.2553 24.3009C68.5779 24.337 68.8914 24.3662 69.1958 24.3885C69.507 24.4018 69.7915 24.4269 70.0491 24.464C70.5472 24.5324 71.0704 24.6054 71.6187 24.6831C72.167 24.7607 72.7112 24.8674 73.2513 25.0032C73.7904 25.131 74.31 25.2941 74.8101 25.4925C75.3102 25.6909 75.7617 25.949 76.1646 26.2669C76.5664 26.5769 76.9048 26.9568 77.1797 27.4066C77.4535 27.8485 77.6336 28.3769 77.72 28.9916Z" fill="white"/>
<path d="M51.382 38.0667L46.6274 38.7349L44.2036 21.489L52.6828 20.2973C53.4813 20.1851 54.2652 20.1727 55.0347 20.2599C55.803 20.3392 56.4992 20.5426 57.1233 20.8701C57.7543 21.1885 58.2823 21.6436 58.7074 22.2352C59.1405 22.8257 59.421 23.576 59.5489 24.4862C59.6488 25.1968 59.5914 25.8888 59.3766 26.5622C59.1687 27.2265 58.8481 27.8415 58.4146 28.4072C57.9881 28.9638 57.4744 29.4512 56.8737 29.8694C56.2719 30.2797 55.6309 30.5855 54.9509 30.787C55.3363 31.2702 55.7298 31.7237 56.1314 32.1477C56.5409 32.5705 56.9465 32.9654 57.3482 33.3323C57.7567 33.6901 58.1573 34.0205 58.55 34.3236C58.9416 34.6187 59.3132 34.888 59.665 35.1317C60.4938 35.6991 61.3017 36.1759 62.0888 36.5619L56.1605 37.3951C55.6175 37.0073 55.0855 36.5244 54.5646 35.9462C54.121 35.4549 53.6555 34.8364 53.168 34.0907C52.6874 33.336 52.2733 32.4456 51.9255 31.4198L50.4764 31.6234L51.382 38.0667ZM54.7225 25.1645C54.5598 24.0068 54.1568 23.1963 53.5137 22.7331C52.8785 22.2687 51.998 22.1156 50.8722 22.2738L49.1955 22.5095L50.2475 29.9946L51.9242 29.759C52.523 29.6748 53.0183 29.4913 53.41 29.2082C53.8086 28.9161 54.1173 28.5633 54.336 28.1499C54.5536 27.7285 54.6915 27.2613 54.7497 26.7484C54.8079 26.2354 54.7988 25.7074 54.7225 25.1645Z" fill="white"/>
<path d="M43.1189 34.4529C43.1873 34.9399 43.1714 35.4062 43.0712 35.8518C42.971 36.2974 42.8059 36.7155 42.5758 37.1061C42.3446 37.4887 42.0604 37.8421 41.7233 38.1663C41.3942 38.4894 41.027 38.773 40.6216 39.0173C40.2243 39.2604 39.8048 39.4618 39.3632 39.6216C38.9204 39.7734 38.4795 39.8801 38.0403 39.9418L27.8964 41.3675L25.4727 24.1216L34.7423 22.8188C35.1495 22.7616 35.5812 22.7335 36.0372 22.7345C36.4922 22.7276 36.9403 22.7582 37.3814 22.8265C37.8305 22.8937 38.2612 23.0041 38.6737 23.1578C39.0941 23.3104 39.4693 23.5183 39.7994 23.7813C40.1363 24.0352 40.4161 24.3459 40.6387 24.7136C40.8694 25.0801 41.02 25.5149 41.0907 26.0179C41.1581 26.497 41.1234 26.9456 40.9868 27.3637C40.8501 27.7819 40.64 28.1697 40.3564 28.527C40.0797 28.8753 39.7466 29.199 39.3571 29.498C38.9744 29.7879 38.5639 30.0532 38.1255 30.2939C38.7308 30.3717 39.3115 30.5058 39.8675 30.6964C40.4314 30.8858 40.936 31.1446 41.3811 31.4729C41.8341 31.8 42.2135 32.2108 42.5191 32.7052C42.8236 33.1917 43.0235 33.7742 43.1189 34.4529ZM36.3232 27.1154C36.1863 26.1413 35.8269 25.4672 35.2451 25.093C34.6713 24.7177 33.9093 24.5968 32.9592 24.7304L30.4562 25.0821L31.2422 30.6751L33.338 30.3805C33.7692 30.3199 34.1811 30.2091 34.5737 30.0481C34.9652 29.8791 35.3009 29.6609 35.5809 29.3936C35.8677 29.1172 36.0782 28.7904 36.2125 28.4133C36.3547 28.0351 36.3916 27.6024 36.3232 27.1154ZM38.2623 34.8301C38.1961 34.359 38.0745 33.9283 37.8975 33.5379C37.7194 33.1396 37.4858 32.8101 37.1968 32.5495C36.9067 32.2809 36.5622 32.0891 36.1634 31.9742C35.7714 31.8501 35.3239 31.8234 34.8209 31.8941L31.4795 32.3637L32.4154 39.0226L35.3376 38.6119C35.8246 38.5434 36.2645 38.4002 36.6572 38.1821C37.05 37.9641 37.3778 37.6901 37.6408 37.36C37.9038 37.0299 38.0906 36.6495 38.201 36.2187C38.3115 35.788 38.3319 35.3251 38.2623 34.8301Z" fill="white"/>
<path d="M163.445 17.8839C163.53 18.4907 163.518 19.042 163.409 19.5378C163.299 20.0335 163.118 20.4784 162.864 20.8723C162.609 21.2583 162.29 21.6002 161.909 21.8981C161.526 22.188 161.105 22.4384 160.646 22.6495C160.196 22.8594 159.715 23.0328 159.205 23.1696C158.695 23.3064 158.185 23.4107 157.674 23.4825C156.987 23.579 156.374 23.6204 155.835 23.6066C155.296 23.5928 154.773 23.5238 154.267 23.3995C153.76 23.2672 153.245 23.0791 152.722 22.835C152.207 22.5898 151.627 22.2846 150.981 21.9194L153.07 19.6597C153.342 20.0366 153.678 20.368 154.076 20.654C154.482 20.9308 154.893 21.1621 155.31 21.3477C155.727 21.5334 156.124 21.6649 156.501 21.7421C156.878 21.8194 157.179 21.8423 157.402 21.8109C157.586 21.7851 157.793 21.7519 158.023 21.7114C158.253 21.6629 158.485 21.6058 158.72 21.5402C158.954 21.4666 159.181 21.3776 159.403 21.2732C159.624 21.1688 159.814 21.0444 159.973 20.9C160.139 20.7464 160.261 20.5705 160.339 20.3723C160.424 20.165 160.447 19.9295 160.41 19.6661C160.372 19.3946 160.267 19.1692 160.096 18.9898C159.931 18.8013 159.726 18.6469 159.481 18.5266C159.236 18.4063 158.963 18.3145 158.66 18.2511C158.358 18.1877 158.054 18.1368 157.748 18.0985C157.449 18.059 157.16 18.0304 156.881 18.0127C156.6 17.987 156.356 17.9602 156.149 17.9324C155.767 17.8802 155.365 17.8308 154.943 17.7842C154.52 17.7297 154.1 17.6626 153.681 17.583C153.262 17.4954 152.855 17.3816 152.461 17.2416C152.075 17.1004 151.723 16.9178 151.407 16.6936C151.097 16.4602 150.833 16.1757 150.615 15.84C150.404 15.4952 150.264 15.0792 150.196 14.5922C150.07 13.698 150.141 12.9268 150.408 12.2786C150.682 11.6213 151.085 11.072 151.617 10.6308C152.149 10.1816 152.775 9.82902 153.496 9.57296C154.217 9.31691 154.961 9.13502 155.728 9.0273C156.255 8.95324 156.817 8.93114 157.416 8.961C158.013 8.98289 158.603 9.0629 159.184 9.20105C159.764 9.33121 160.315 9.51433 160.837 9.7504C161.358 9.98648 161.806 10.2777 162.181 10.624L160.094 12.8958C159.851 12.4414 159.562 12.0628 159.226 11.7598C158.898 11.4558 158.552 11.2195 158.186 11.0511C157.827 10.8735 157.465 10.7576 157.099 10.7031C156.741 10.6476 156.414 10.6406 156.119 10.6821C155.832 10.7225 155.51 10.7799 155.154 10.8544C154.798 10.9288 154.468 11.0444 154.165 11.201C153.869 11.3566 153.626 11.5658 153.435 11.8288C153.25 12.0826 153.186 12.4092 153.242 12.8084C153.283 13.0958 153.382 13.3343 153.538 13.524C153.702 13.7045 153.903 13.8555 154.139 13.9769C154.375 14.0903 154.636 14.1798 154.922 14.2455C155.215 14.302 155.511 14.35 155.81 14.3894C156.107 14.4209 156.396 14.4455 156.675 14.4632C156.954 14.481 157.206 14.5066 157.431 14.5402C157.812 14.5924 158.215 14.6458 158.638 14.7003C159.068 14.7458 159.492 14.8123 159.912 14.8999C160.33 14.9795 160.736 15.0893 161.13 15.2293C161.531 15.3602 161.891 15.5418 162.208 15.774C162.526 16.0062 162.794 16.2941 163.014 16.6378C163.232 16.9735 163.376 17.3889 163.445 17.8839Z" fill="white"/>
<path d="M148.689 11.6045L146.944 15.6968C146.803 15.3909 146.629 15.049 146.421 14.6711C146.213 14.2933 145.973 13.9484 145.702 13.6365C145.429 13.3166 145.12 13.0627 144.776 12.875C144.431 12.6792 144.055 12.6099 143.648 12.6672C143.273 12.7199 142.959 12.8617 142.706 13.0926C142.462 13.3224 142.266 13.6064 142.118 13.9447C141.969 14.2751 141.858 14.6448 141.785 15.054C141.719 15.4541 141.678 15.8588 141.663 16.2681C141.654 16.6683 141.663 17.0537 141.691 17.4243C141.717 17.787 141.749 18.1001 141.786 18.3635L142.761 25.2978L138.701 25.8684L136.757 12.0358L138.314 11.817L140.407 14.808C140.558 14.2576 140.746 13.7466 140.973 13.2751C141.199 12.7956 141.478 12.3737 141.809 12.0096C142.139 11.6375 142.528 11.3305 142.974 11.0887C143.429 10.8457 143.955 10.6821 144.554 10.598C144.865 10.5542 145.217 10.5333 145.608 10.5354C145.998 10.5294 146.385 10.5645 146.77 10.6406C147.155 10.7088 147.516 10.8208 147.856 10.9766C148.195 11.1325 148.473 11.3418 148.689 11.6045Z" fill="white"/>
<path d="M135.161 19.2823C135.262 20.0009 135.261 20.6891 135.158 21.3467C135.055 22.0044 134.869 22.6249 134.601 23.208C134.341 23.7901 134.002 24.3304 133.583 24.8289C133.164 25.3193 132.687 25.7527 132.154 26.1289C131.629 26.504 131.05 26.8174 130.418 27.0691C129.793 27.3197 129.138 27.4932 128.451 27.5897C127.764 27.6862 127.087 27.7 126.417 27.6313C125.748 27.5625 125.105 27.4208 124.489 27.2061C123.881 26.9904 123.307 26.7046 122.769 26.3488C122.229 25.9849 121.75 25.5597 121.332 25.073C120.921 24.5852 120.576 24.0394 120.295 23.4355C120.014 22.8237 119.823 22.1625 119.723 21.4519C119.624 20.7413 119.625 20.0572 119.728 19.3995C119.83 18.7339 120.011 18.11 120.271 17.5279C120.539 16.9447 120.883 16.4079 121.303 15.9174C121.721 15.4189 122.193 14.9821 122.718 14.6071C123.252 14.2308 123.831 13.9175 124.455 13.6669C125.079 13.4163 125.735 13.2428 126.421 13.1463C127.108 13.0498 127.786 13.0359 128.455 13.1047C129.132 13.1724 129.775 13.3141 130.383 13.5298C131 13.7445 131.578 14.0337 132.117 14.3975C132.656 14.7533 133.13 15.1752 133.541 15.663C133.959 16.1497 134.309 16.6989 134.591 17.3107C134.871 17.9145 135.061 18.5717 135.161 19.2823ZM131.041 19.8613C130.987 19.4781 130.907 19.0783 130.799 18.6618C130.699 18.2363 130.568 17.8272 130.407 17.4346C130.245 17.034 130.045 16.659 129.809 16.3096C129.58 15.951 129.313 15.6505 129.011 15.4081C128.707 15.1577 128.359 14.9745 127.969 14.8584C127.577 14.7344 127.137 14.7066 126.65 14.775C126.187 14.8401 125.788 14.9857 125.454 15.2119C125.119 15.438 124.837 15.7179 124.607 16.0515C124.384 16.3759 124.207 16.7427 124.078 17.1517C123.956 17.5597 123.868 17.9791 123.815 18.41C123.76 18.8329 123.739 19.2593 123.75 19.6892C123.761 20.1111 123.792 20.5057 123.843 20.8729C123.895 21.2402 123.974 21.6321 124.082 22.0485C124.188 22.4569 124.326 22.8609 124.496 23.2604C124.666 23.6598 124.866 24.0388 125.096 24.3974C125.332 24.7468 125.603 25.0508 125.908 25.3091C126.22 25.5584 126.568 25.7456 126.952 25.8708C127.336 25.996 127.759 26.026 128.222 25.9609C128.701 25.8936 129.113 25.7503 129.456 25.531C129.799 25.3037 130.082 25.0279 130.305 24.7034C130.536 24.3778 130.713 24.0151 130.836 23.6151C130.959 23.2152 131.043 22.8003 131.088 22.3705C131.142 21.9397 131.159 21.5098 131.139 21.0811C131.128 20.6512 131.095 20.2446 131.041 19.8613Z" fill="white"/>
<path d="M117.987 21.6959C118.088 22.4145 118.087 23.1026 117.984 23.7603C117.881 24.418 117.696 25.0384 117.427 25.6216C117.167 26.2037 116.828 26.744 116.41 27.2424C115.99 27.7329 115.513 28.1663 114.98 28.5425C114.455 28.9176 113.876 29.231 113.244 29.4827C112.619 29.7332 111.964 29.9068 111.277 30.0033C110.591 30.0998 109.913 30.1136 109.244 30.0448C108.574 29.976 107.932 29.8343 107.315 29.6197C106.707 29.404 106.133 29.1182 105.595 28.7623C105.055 28.3985 104.576 27.9733 104.158 27.4866C103.747 26.9987 103.402 26.4529 103.121 25.8491C102.84 25.2373 102.649 24.5761 102.55 23.8655C102.45 23.1549 102.451 22.4708 102.554 21.8131C102.656 21.1474 102.837 20.5236 103.097 19.9415C103.365 19.3583 103.709 18.8215 104.129 18.331C104.547 17.8325 105.019 17.3957 105.545 17.0206C106.078 16.6444 106.657 16.331 107.281 16.0805C107.905 15.8299 108.561 15.6563 109.247 15.5598C109.934 15.4633 110.612 15.4495 111.281 15.5183C111.958 15.586 112.601 15.7277 113.209 15.9434C113.826 16.158 114.404 16.4473 114.943 16.8111C115.482 17.1669 115.957 17.5887 116.367 18.0765C116.786 18.5632 117.135 19.1125 117.417 19.7243C117.697 20.3281 117.887 20.9853 117.987 21.6959ZM113.867 22.2749C113.813 21.8917 113.733 21.4918 113.625 21.0754C113.525 20.6499 113.394 20.2408 113.233 19.8482C113.071 19.4476 112.872 19.0726 112.635 18.7231C112.406 18.3646 112.14 18.0641 111.837 17.8217C111.533 17.5713 111.186 17.3881 110.795 17.272C110.403 17.148 109.963 17.1202 109.476 17.1886C109.013 17.2537 108.614 17.3993 108.28 17.6255C107.945 17.8516 107.663 18.1315 107.433 18.465C107.21 18.7895 107.033 19.1563 106.904 19.5653C106.782 19.9732 106.694 20.3926 106.641 20.8235C106.586 21.2464 106.565 21.6728 106.576 22.1027C106.587 22.5246 106.618 22.9192 106.669 23.2865C106.721 23.6538 106.801 24.0456 106.908 24.4621C107.014 24.8705 107.152 25.2745 107.323 25.6739C107.493 26.0734 107.692 26.4524 107.922 26.811C108.158 27.1604 108.429 27.4643 108.734 27.7227C109.046 27.972 109.394 28.1592 109.778 28.2844C110.162 28.4095 110.585 28.4396 111.048 28.3745C111.527 28.3072 111.939 28.1639 112.283 27.9446C112.625 27.7173 112.908 27.4414 113.131 27.117C113.362 26.7914 113.539 26.4286 113.662 26.0287C113.785 25.6287 113.869 25.2139 113.915 24.7841C113.968 24.3532 113.985 23.9234 113.965 23.4946C113.954 23.0647 113.921 22.6582 113.867 22.2749Z" fill="white"/>
<path d="M96.9272 31.7392L100.975 31.1702L98.1357 10.9662L96.5787 11.185L94.6785 15.7388L96.9272 31.7392ZM95.3667 11.6851L93.6111 15.7911C93.5445 15.4911 93.4398 15.1516 93.297 14.7727C93.153 14.3859 92.9526 14.0314 92.6956 13.7093C92.4467 13.386 92.1257 13.1299 91.7327 12.9408C91.3467 12.7427 90.8782 12.6823 90.3272 12.7598C89.7604 12.8394 89.3238 13.0351 89.0175 13.3469C88.7112 13.6586 88.501 14.0749 88.387 14.5957C88.2718 15.1085 88.2316 15.7208 88.2665 16.4323C88.3002 17.1359 88.3788 17.9269 88.5022 18.8051L92.694 18.216L92.9195 19.8209L88.7278 20.41L90.448 32.6497L86.388 33.2203L84.6678 20.9806L82.1528 21.334L81.9273 19.7292L84.4423 19.3757C84.0855 16.8368 84.3659 14.8636 85.2835 13.4564C86.2001 12.0412 87.7801 11.1759 90.0237 10.8606C90.6944 10.7663 91.2999 10.7301 91.8403 10.7518C92.3876 10.7645 92.8755 10.818 93.304 10.9125C93.7394 10.9979 94.1257 11.1105 94.4629 11.2504C94.8001 11.3902 95.1013 11.5352 95.3667 11.6851Z" fill="white"/>
<path d="M62.1201 3.70386L-3.69556 14.1383V22.8337L62.1201 3.70386Z" fill="white"/>
<path d="M10.7346 21.8675L8.62288 20.3217L52.9692 9.694L10.7346 21.8675Z" fill="white"/>
<path d="M192.696 22.8337L79.7179 43.1229H99.7793L192.696 27.0847V22.8337Z" fill="white"/>
<path d="M62.1201 3.70386L-3.69556 14.1383V22.8337L62.1201 3.70386Z" stroke="white" stroke-width="0.175978"/>
<path d="M10.7346 21.8675L8.62288 20.3217L52.9692 9.694L10.7346 21.8675Z" stroke="white" stroke-width="0.175978"/>
<path d="M192.696 22.8337L79.7179 43.1229H99.7793L192.696 27.0847V22.8337Z" stroke="white" stroke-width="0.175978"/>
</g>
<defs>
<clipPath id="clip0_105_966">
<rect width="189" height="42.2449" fill="white" transform="translate(0 0.877686)"/>
</clipPath>
</defs>
</svg>
