<svg width="29" height="30" viewBox="0 0 29 30" fill="none" xmlns="http://www.w3.org/2000/svg">
<path id="Vector" d="M15.5441 1.30814C15.5441 1.03268 15.4346 0.768509 15.2399 0.573732C15.0451 0.378956 14.7809 0.269531 14.5055 0.269531C14.23 0.269531 13.9658 0.378956 13.771 0.573732C13.5763 0.768509 13.4668 1.03268 13.4668 1.30814V3.35766C13.4668 3.63311 13.5763 3.89728 13.771 4.09206C13.9658 4.28684 14.23 4.39626 14.5055 4.39626C14.7809 4.39626 15.0451 4.28684 15.2399 4.09206C15.4346 3.89728 15.5441 3.63311 15.5441 3.35766V1.30814ZM22.6218 12.3728C22.3332 11.2506 21.8092 10.2027 21.0847 9.29848C20.3663 8.38799 19.4654 7.63795 18.4397 7.09664C17.4166 6.5596 16.2956 6.2346 15.1438 6.14112C13.9889 6.05435 12.8285 6.21001 11.7372 6.59811C10.6399 6.98075 9.63504 7.58932 8.78757 8.38451C7.94921 9.16627 7.27589 10.108 6.8073 11.1541C6.34934 12.2164 6.11822 13.3625 6.12874 14.5192C6.09664 15.8552 6.3825 17.1797 6.96275 18.3836C7.543 19.5874 8.40103 20.6361 9.46613 21.4433L9.95081 21.9002C10.3663 22.3295 10.3663 22.3295 10.3524 23.2851V23.7282C10.3357 24.0346 10.3829 24.3411 10.4909 24.6283C10.5878 24.9357 10.7595 25.2169 10.9894 25.4454C11.0947 25.5534 11.2101 25.6503 11.3356 25.7362V27.121C11.3128 27.3721 11.34 27.6253 11.4155 27.8659C11.491 28.1065 11.6133 28.3298 11.7755 28.5229C11.9377 28.716 12.1366 28.8751 12.3605 28.991C12.5845 29.1069 12.8292 29.1773 13.0805 29.1982H15.8501C16.3587 29.1559 16.8298 28.9133 17.1596 28.5237C17.4894 28.1342 17.651 27.6296 17.6088 27.121V25.7362C17.7338 25.6513 17.8498 25.5538 17.955 25.4454C18.1724 25.2155 18.3386 24.9413 18.4397 24.6422C18.5458 24.3497 18.5929 24.039 18.5782 23.7282V23.2158C18.5782 22.4542 18.5782 22.4542 19.0075 21.9695L19.5337 21.4848C21.3091 20.104 22.4685 18.0788 22.7603 15.8486C22.9642 14.6935 22.9169 13.508 22.6218 12.3728ZM15.6008 27.0933H13.4128V26.2208H15.6008V27.0933ZM14.5068 12.4697C14.0551 12.4697 13.6218 12.6492 13.3024 12.9686C12.983 13.288 12.8035 13.7213 12.8035 14.173C12.8035 14.5403 12.6576 14.8925 12.3979 15.1522C12.1382 15.4119 11.786 15.5578 11.4187 15.5578C11.0514 15.5578 10.6992 15.4119 10.4395 15.1522C10.1798 14.8925 10.0339 14.5403 10.0339 14.173C10.0302 13.5846 10.1434 13.0013 10.3669 12.457C10.5904 11.9126 10.9197 11.4181 11.3358 11.002C11.7519 10.5859 12.2464 10.2566 12.7908 10.0331C13.3351 9.80959 13.9184 9.6964 14.5068 9.70008C14.8741 9.70008 15.2263 9.84598 15.486 10.1057C15.7457 10.3654 15.8916 10.7176 15.8916 11.0849C15.8916 11.4522 15.7457 11.8044 15.486 12.0641C15.2263 12.3238 14.8741 12.4697 14.5068 12.4697ZM27.1917 15.9317H24.6575C24.382 15.9317 24.1179 15.8223 23.9231 15.6275C23.7283 15.4327 23.6189 15.1686 23.6189 14.8931C23.6189 14.6177 23.7283 14.3535 23.9231 14.1587C24.1179 13.9639 24.382 13.8545 24.6575 13.8545H27.1917C27.4671 13.8545 27.7313 13.9639 27.9261 14.1587C28.1209 14.3535 28.2303 14.6177 28.2303 14.8931C28.2303 15.1686 28.1209 15.4327 27.9261 15.6275C27.7313 15.8223 27.4671 15.9317 27.1917 15.9317ZM22.0956 7.60902C21.9591 7.60966 21.8239 7.58305 21.6979 7.53073C21.5718 7.47841 21.4575 7.40145 21.3616 7.30436C21.1671 7.10962 21.0579 6.84564 21.0579 6.57041C21.0579 6.29518 21.1671 6.0312 21.3616 5.83646L23.1619 4.03621C23.3588 3.85275 23.6192 3.75288 23.8883 3.75762C24.1573 3.76237 24.414 3.87137 24.6043 4.06166C24.7946 4.25195 24.9036 4.50868 24.9084 4.77775C24.9131 5.04682 24.8132 5.30722 24.6298 5.50411L22.8295 7.30436C22.7341 7.40209 22.6199 7.47947 22.4938 7.53183C22.3676 7.58419 22.2322 7.61045 22.0956 7.60902ZM25.2806 24.836C25.0067 24.8287 24.7453 24.7202 24.5467 24.5314L22.7464 22.7311C22.6248 22.6105 22.5348 22.4617 22.4846 22.2979C22.4344 22.1341 22.4255 21.9604 22.4587 21.7924C22.4918 21.6243 22.5661 21.467 22.6748 21.3346C22.7834 21.2022 22.9232 21.0987 23.0816 21.0334C23.2716 20.9532 23.4814 20.9323 23.6835 20.9733C23.8856 21.0144 24.0706 21.1154 24.2143 21.2632L26.0146 23.0635C26.1126 23.159 26.1905 23.2731 26.2436 23.3991C26.2968 23.5252 26.3242 23.6606 26.3242 23.7974C26.3242 23.9342 26.2968 24.0697 26.2436 24.1957C26.1905 24.3218 26.1126 24.4359 26.0146 24.5314C25.82 24.7262 25.556 24.8358 25.2806 24.836ZM6.93193 7.60902C6.65657 7.60878 6.39257 7.49919 6.19798 7.30436L4.39773 5.50411C4.20308 5.30762 4.09445 5.04185 4.09575 4.76526C4.09705 4.48868 4.20816 4.22394 4.40465 4.02929C4.60115 3.83463 4.86692 3.72601 5.1435 3.7273C5.42008 3.7286 5.68482 3.83972 5.87948 4.03621L7.66588 5.83646C7.81095 5.98171 7.90972 6.16669 7.94972 6.36804C7.98972 6.56939 7.96915 6.77808 7.89062 6.96775C7.81208 7.15741 7.6791 7.31956 7.50847 7.43369C7.33784 7.54783 7.13721 7.60884 6.93193 7.60902ZM3.76072 24.836C3.6238 24.84 3.4876 24.8149 3.36109 24.7624C3.23458 24.7099 3.12064 24.6311 3.02677 24.5314C2.83227 24.3366 2.72303 24.0727 2.72303 23.7974C2.72303 23.5222 2.83227 23.2582 3.02677 23.0635L4.82702 21.2632C5.02391 21.0798 5.28432 20.9799 5.55338 20.9846C5.82245 20.9894 6.07918 21.0984 6.26947 21.2887C6.45976 21.479 6.56876 21.7357 6.57351 22.0048C6.57826 22.2738 6.47838 22.5342 6.29492 22.7311L4.50852 24.5452C4.30434 24.7322 4.03756 24.8359 3.76072 24.836ZM4.34234 15.9317H1.80814C1.53268 15.9317 1.26851 15.8223 1.07373 15.6275C0.878955 15.4327 0.769531 15.1686 0.769531 14.8931C0.769531 14.6177 0.878955 14.3535 1.07373 14.1587C1.26851 13.9639 1.53268 13.8545 1.80814 13.8545H4.34234C4.61779 13.8545 4.88197 13.9639 5.07674 14.1587C5.27152 14.3535 5.38094 14.6177 5.38094 14.8931C5.38094 15.1686 5.27152 15.4327 5.07674 15.6275C4.88197 15.8223 4.61779 15.9317 4.34234 15.9317Z" fill="#EC8A3F"/>
</svg>
