<svg width="24" height="29" viewBox="0 0 24 29" fill="none" xmlns="http://www.w3.org/2000/svg">
<path id="Vector" d="M21.3733 9.3535L23.2667 7.46016C22.6667 6.78016 22.0667 6.16683 21.3867 5.58016L19.4933 7.50016C17.4267 5.82016 14.8267 4.8335 12 4.8335C8.8174 4.8335 5.76516 6.09778 3.51472 8.34821C1.26428 10.5987 0 13.6509 0 16.8335C0 20.0161 1.26428 23.0683 3.51472 25.3188C5.76516 27.5692 8.8174 28.8335 12 28.8335C18.6667 28.8335 24 23.4602 24 16.8335C24 14.0068 23.0133 11.4068 21.3733 9.3535ZM13.3333 18.1668H10.6667V8.8335H13.3333V18.1668ZM16 0.833496H8V3.50016H16V0.833496Z" fill="#EC8A3F"/>
</svg>
