<svg width="36" height="35" viewBox="0 0 36 35" fill="none" xmlns="http://www.w3.org/2000/svg">
<path id="Vector" d="M17.0513 0.227184C17.2851 0.078798 17.5562 0 17.833 0C18.1098 0 18.381 0.078798 18.6147 0.227184L32.6322 9.14643C33.8179 9.90161 34.691 11.0596 35.0909 12.4073L17.833 21.6765L0.583841 12.3781C0.987727 11.0425 1.85696 9.89598 3.03384 9.14643L17.0513 0.227184ZM0.333008 15.5573V29.1666C0.333008 30.7137 0.947589 32.1975 2.04155 33.2914C3.13551 34.3854 4.61925 35 6.16634 35H29.4997C31.0468 35 32.5305 34.3854 33.6245 33.2914C34.7184 32.1975 35.333 30.7137 35.333 29.1666V15.5865L18.5243 24.6166C18.3118 24.7309 18.0743 24.7908 17.833 24.7908C17.5917 24.7908 17.3542 24.7309 17.1418 24.6166L0.333008 15.5573Z" fill="#FA7D1E"/>
</svg>
