<svg width="23" height="30" viewBox="0 0 23 30" fill="none" xmlns="http://www.w3.org/2000/svg">
<g id="Group">
<path id="Vector" fill-rule="evenodd" clip-rule="evenodd" d="M11.5002 0.5V9.16667C11.5002 9.6971 11.7109 10.2058 12.0859 10.5809C12.461 10.956 12.9697 11.1667 13.5002 11.1667H22.1668V24.5C22.1668 25.2072 21.8859 25.8855 21.3858 26.3856C20.8857 26.8857 20.2074 27.1667 19.5002 27.1667H3.50016C2.79292 27.1667 2.11464 26.8857 1.61454 26.3856C1.11445 25.8855 0.833496 25.2072 0.833496 24.5V3.16667C0.833496 2.45942 1.11445 1.78115 1.61454 1.28105C2.11464 0.780951 2.79292 0.5 3.50016 0.5H11.5002ZM15.5002 17.8333H7.50016C7.14654 17.8333 6.8074 17.9738 6.55735 18.2239C6.30731 18.4739 6.16683 18.813 6.16683 19.1667C6.16683 19.5203 6.30731 19.8594 6.55735 20.1095C6.8074 20.3595 7.14654 20.5 7.50016 20.5H15.5002C15.8538 20.5 16.1929 20.3595 16.443 20.1095C16.693 19.8594 16.8335 19.5203 16.8335 19.1667C16.8335 18.813 16.693 18.4739 16.443 18.2239C16.1929 17.9738 15.8538 17.8333 15.5002 17.8333ZM8.8335 12.5H7.50016C7.14654 12.5 6.8074 12.6405 6.55735 12.8905C6.30731 13.1406 6.16683 13.4797 6.16683 13.8333C6.16683 14.187 6.30731 14.5261 6.55735 14.7761C6.8074 15.0262 7.14654 15.1667 7.50016 15.1667H8.8335C9.18712 15.1667 9.52626 15.0262 9.77631 14.7761C10.0264 14.5261 10.1668 14.187 10.1668 13.8333C10.1668 13.4797 10.0264 13.1406 9.77631 12.8905C9.52626 12.6405 9.18712 12.5 8.8335 12.5ZM14.1668 0.557333C14.672 0.664474 15.1352 0.915989 15.5002 1.28133L21.3855 7.16667C21.7508 7.53163 22.0024 7.99483 22.1095 8.5H14.1668V0.557333Z" fill="#EC8A3F"/>
</g>
</svg>
