<svg width="25" height="25" viewBox="0 0 25 25" fill="none" xmlns="http://www.w3.org/2000/svg">
<path id="Vector" d="M18.1533 11.8452L20.2467 9.75185L15.2467 4.75185L13.1533 6.84519L7.63333 1.33852C6.59333 0.298522 4.9 0.298522 3.86 1.33852L1.32667 3.87185C0.286667 4.91185 0.286667 6.60519 1.32667 7.64519L6.83333 13.1519L0.7 19.2985C0.566667 19.4319 0.5 19.5919 0.5 19.7785V23.8319C0.5 24.2052 0.793333 24.4985 1.16667 24.4985H5.22C5.39333 24.4985 5.56667 24.4319 5.68667 24.2985L11.8467 18.1385L17.3533 23.6452C19.1133 25.4052 21.0333 23.7385 21.1267 23.6452L23.66 21.1119C24.7 20.0719 24.7 18.3785 23.66 17.3385L18.1533 11.8452ZM8.74 11.2585L3.22 5.75185L5.74 3.21852L7.43333 4.91185L6.80667 5.56519C6.55736 5.81449 6.41731 6.15262 6.41731 6.50519C6.41731 6.85776 6.55736 7.19588 6.80667 7.44519C7.05597 7.69449 7.3941 7.83455 7.74667 7.83455C8.09924 7.83455 8.43736 7.69449 8.68667 7.44519L9.32667 6.80519L11.26 8.73852L8.74 11.2585ZM19.2467 21.7785L13.74 16.2719L16.2733 13.7385L18.2067 15.6719L17.5667 16.3119C17.4432 16.4353 17.3453 16.5818 17.2785 16.7431C17.2117 16.9044 17.1773 17.0773 17.1773 17.2519C17.1773 17.4264 17.2117 17.5993 17.2785 17.7606C17.3453 17.9219 17.4432 18.0684 17.5667 18.1919C17.6901 18.3153 17.8367 18.4132 17.9979 18.48C18.1592 18.5468 18.3321 18.5812 18.5067 18.5812C18.6812 18.5812 18.8541 18.5468 19.0154 18.48C19.1767 18.4132 19.3232 18.3153 19.4467 18.1919L20.0867 17.5519L21.78 19.2452L19.2467 21.7785ZM24.1133 5.88519C24.2369 5.76184 24.335 5.61532 24.4019 5.45402C24.4688 5.29272 24.5033 5.11981 24.5033 4.94519C24.5033 4.77056 24.4688 4.59765 24.4019 4.43636C24.335 4.27506 24.2369 4.12854 24.1133 4.00519L20.9933 0.885188C20.3667 0.258522 19.5 0.498522 19.1133 0.885188L16.6733 3.32519L21.6733 8.32519L24.1133 5.88519Z" fill="#EC8A3F"/>
</svg>
