<svg width="43" height="35" viewBox="0 0 43 35" fill="none" xmlns="http://www.w3.org/2000/svg">
<g id="Group">
<path id="Vector" d="M42.1135 8.44478L42.6085 10.6497C42.6835 10.9842 42.6835 11.3157 42.6205 11.6277C42.6505 11.7477 42.666 11.8717 42.667 11.9997C42.667 12.3975 42.509 12.779 42.2277 13.0603C41.9464 13.3416 41.5649 13.4996 41.167 13.4996H37.7847L35.5602 10.5342V10.5312C35.2046 10.0546 34.7424 9.66791 34.2106 9.40198C33.6787 9.13605 33.092 8.9983 32.4973 8.99976H32.1674V6.46483C32.1674 5.38186 31.2854 4.49988 30.2024 4.49988H28.1325C27.0495 4.49988 26.1676 5.38186 26.1676 6.46483V8.98477H17.1679V6.46483C17.1679 5.38186 16.2859 4.49988 15.2029 4.49988H13.133C12.0501 4.49988 11.1681 5.38186 11.1681 6.46483V8.99976H10.8381C9.62614 8.99976 8.49368 9.57125 7.7632 10.5447L5.54928 13.4996H2.16839C1.93971 13.4997 1.71403 13.4475 1.50863 13.3469C1.30323 13.2464 1.12353 13.1002 0.983281 12.9196C0.843031 12.739 0.74594 12.5286 0.699432 12.3047C0.652924 12.0808 0.65823 11.8492 0.714945 11.6277C0.647185 11.3048 0.651282 10.9709 0.726944 10.6497L1.20693 8.44478C1.74189 6.05048 3.07611 3.90967 4.98996 2.37475C6.90382 0.839838 9.28325 0.00229744 11.7366 0H31.5989C34.0511 0.000238722 36.4297 0.837322 38.3416 2.37285C40.2535 3.90838 41.5841 6.05041 42.1135 8.44478Z" fill="#FA7D1E"/>
<path id="Vector_2" d="M34.3558 11.4299L39.8456 18.7497C41.6759 21.1846 42.6655 24.1483 42.6655 27.1944V32.1593C42.6655 33.4493 41.6156 34.4993 40.3256 34.4993H3.00691C1.71696 34.4993 0.666992 33.4493 0.666992 32.1593V27.1944C0.666992 24.1495 1.65696 21.1796 3.4869 18.7497L8.96171 11.4449C9.41169 10.8449 10.1017 10.4999 10.8366 10.4999H12.2016C12.4566 10.4999 12.6666 10.2899 12.6666 10.0349V6.46499C12.6666 6.21 12.8766 6 13.1316 6H15.2015C15.4565 6 15.6665 6.21 15.6665 6.46499V10.0349C15.6665 10.2899 15.8765 10.4999 16.1315 10.4999H27.2011C27.4561 10.4999 27.6661 10.2899 27.6661 10.0349V6.46499C27.6661 6.21 27.8761 6 28.131 6H30.201C30.456 6 30.666 6.21 30.666 6.46499V10.0349C30.666 10.2899 30.8759 10.4999 31.1309 10.4999H32.4959C33.2309 10.4999 33.9208 10.8449 34.3558 11.4299ZM18.2134 17.9997C18.4684 17.9997 18.6799 17.7897 18.6649 17.5317V15.4678C18.6645 15.344 18.6153 15.2254 18.5279 15.1378C18.4405 15.0502 18.3221 15.0006 18.1984 14.9998H16.1345C16.0105 15.0002 15.8917 15.0496 15.804 15.1373C15.7163 15.225 15.6669 15.3438 15.6665 15.4678V17.5317C15.6665 17.7882 15.8765 17.9997 16.1495 17.9997H18.2134ZM22.7132 17.9997C22.7741 18.0001 22.8345 17.9882 22.8906 17.9647C22.9468 17.9411 22.9976 17.9064 23.0399 17.8627C23.0823 17.8189 23.1153 17.767 23.137 17.7101C23.1587 17.6532 23.1687 17.5925 23.1662 17.5317V15.4678C23.1654 15.3439 23.1159 15.2253 23.0283 15.1377C22.9407 15.0501 22.8221 15.0005 22.6982 14.9998H20.6343C20.5103 15.0002 20.3915 15.0496 20.3038 15.1373C20.2161 15.225 20.1667 15.3438 20.1663 15.4678V17.5317C20.1663 17.7882 20.3763 17.9997 20.6493 17.9997H22.7132ZM25.1491 17.9997H27.2131C27.274 18.0001 27.3343 17.9882 27.3905 17.9647C27.4466 17.9411 27.4974 17.9064 27.5398 17.8627C27.5821 17.8189 27.6151 17.767 27.6369 17.7101C27.6586 17.6532 27.6685 17.5925 27.6661 17.5317V15.4678C27.6653 15.3439 27.6157 15.2253 27.5281 15.1377C27.4405 15.0501 27.322 15.0005 27.1981 14.9998H25.1341C25.0102 15.0002 24.8913 15.0496 24.8037 15.1373C24.716 15.225 24.6666 15.3438 24.6662 15.4678V17.5317C24.6662 17.7882 24.8762 17.9997 25.1491 17.9997ZM18.2134 22.4996C18.4684 22.4996 18.6799 22.2896 18.6649 22.0316V19.9676C18.6645 19.8439 18.6153 19.7253 18.5279 19.6377C18.4405 19.55 18.3221 19.5004 18.1984 19.4996H16.1345C16.0105 19.5 15.8917 19.5495 15.804 19.6372C15.7163 19.7248 15.6669 19.8436 15.6665 19.9676V22.0316C15.6665 22.2881 15.8765 22.4996 16.1495 22.4996H18.2134ZM20.6493 22.4996H22.7132C22.7741 22.5 22.8345 22.4881 22.8906 22.4646C22.9468 22.441 22.9976 22.4063 23.0399 22.3626C23.0823 22.3188 23.1153 22.2669 23.137 22.21C23.1587 22.1531 23.1687 22.0924 23.1662 22.0316V19.9676C23.1654 19.8438 23.1159 19.7252 23.0283 19.6376C22.9407 19.55 22.8221 19.5004 22.6982 19.4996H20.6343C20.5103 19.5 20.3915 19.5495 20.3038 19.6372C20.2161 19.7248 20.1667 19.8436 20.1663 19.9676V22.0316C20.1663 22.2881 20.3763 22.4996 20.6493 22.4996ZM27.2131 22.4996C27.274 22.5 27.3343 22.4881 27.3905 22.4646C27.4466 22.441 27.4974 22.4063 27.5398 22.3626C27.5821 22.3188 27.6151 22.2669 27.6369 22.21C27.6586 22.1531 27.6685 22.0924 27.6661 22.0316V19.9676C27.6653 19.8438 27.6157 19.7252 27.5281 19.6376C27.4405 19.55 27.322 19.5004 27.1981 19.4996H25.1341C25.0102 19.5 24.8913 19.5495 24.8037 19.6372C24.716 19.7248 24.6666 19.8436 24.6662 19.9676V22.0316C24.6662 22.2881 24.8762 22.4996 25.1491 22.4996H27.2131ZM16.1495 26.9994H18.2134C18.4684 26.9994 18.6799 26.7895 18.6649 26.5315V24.4675C18.6645 24.3438 18.6153 24.2252 18.5279 24.1376C18.4405 24.0499 18.3221 24.0003 18.1984 23.9995H16.1345C16.0105 23.9999 15.8917 24.0494 15.804 24.137C15.7163 24.2247 15.6669 24.3435 15.6665 24.4675V26.5315C15.6665 26.788 15.8765 26.9994 16.1495 26.9994ZM22.7132 26.9994C22.7741 26.9999 22.8345 26.988 22.8906 26.9644C22.9468 26.9409 22.9976 26.9062 23.0399 26.8624C23.0823 26.8187 23.1153 26.7668 23.137 26.7099C23.1587 26.653 23.1687 26.5923 23.1662 26.5315V24.4675C23.1654 24.3436 23.1159 24.2251 23.0283 24.1375C22.9407 24.0499 22.8221 24.0003 22.6982 23.9995H20.6343C20.5103 23.9999 20.3915 24.0494 20.3038 24.137C20.2161 24.2247 20.1667 24.3435 20.1663 24.4675V26.5315C20.1663 26.788 20.3763 26.9994 20.6493 26.9994H22.7132ZM25.1491 26.9994H27.2131C27.274 26.9999 27.3343 26.988 27.3905 26.9644C27.4466 26.9409 27.4974 26.9062 27.5398 26.8624C27.5821 26.8187 27.6151 26.7668 27.6369 26.7099C27.6586 26.653 27.6685 26.5923 27.6661 26.5315V24.4675C27.6653 24.3436 27.6157 24.2251 27.5281 24.1375C27.4405 24.0499 27.322 24.0003 27.1981 23.9995H25.1341C25.0102 23.9999 24.8913 24.0494 24.8037 24.137C24.716 24.2247 24.6666 24.3435 24.6662 24.4675V26.5315C24.6662 26.788 24.8762 26.9994 25.1491 26.9994Z" fill="#FA7D1E"/>
</g>
</svg>
